<svg xmlns="http://www.w3.org/2000/svg" width="610.34" height="626.34" viewBox="0 0 610.34 626.34">
  <g id="Grupo_240987" data-name="Grupo 240987" transform="translate(-495 -5043.5)">
    <path id="Trazado_231785" data-name="Trazado 231785" d="M468.035,366.654,399.69,435H303.04l-68.345-68.343V270l68.345-68.343H399.69L468.035,270Z" transform="translate(448.305 4841.843)" fill="#7ed0eb" style="mix-blend-mode: multiply;isolation: isolate"/>
    <path id="Trazado_231786" data-name="Trazado 231786" d="M188.641,611.147,120.3,542.8V446.151l68.34-68.342H285.3l68.342,68.342V542.8L285.3,611.147Z" transform="translate(374.699 4955.698)" fill="#7ed0eb" style="mix-blend-mode: multiply;isolation: isolate"/>
    <path id="Trazado_231787" data-name="Trazado 231787" d="M514.078,490.676H417.422l-68.336-68.344V325.676l68.344-68.34h96.656l68.34,68.349,0,96.648Z" transform="translate(522.913 4877.831)" fill="#7ed0eb" style="mix-blend-mode: multiply;isolation: isolate"/>
    <path id="Trazado_231788" data-name="Trazado 231788" d="M419.987,590.969H302.935l-82.755-82.013V392.968l82.765-82.008H420l82.76,82.019,0,115.977Z" transform="translate(439.256 4912.491)" fill="#101d5e" opacity="0.7" style="mix-blend-mode: multiply;isolation: isolate"/>
    <path id="Trazado_231789" data-name="Trazado 231789" d="M399.7,673.921H303.037l-68.342-68.343V508.923l68.342-68.343h96.652l68.346,68.343v96.646Z" transform="translate(448.305 4995.919)" fill="#7ed0eb" style="mix-blend-mode: multiply;isolation: isolate"/>
    <path id="Trazado_231790" data-name="Trazado 231790" d="M349.086,542.809V446.152l68.336-68.344h96.656l68.344,68.344,0,96.648-68.34,68.349H417.431Z" transform="translate(522.913 4955.698)" fill="#7ed0eb" style="mix-blend-mode: multiply;isolation: isolate"/>
    <path id="Trazado_233372" data-name="Trazado 233372" d="M-53.3-5.445a6.718,6.718,0,0,1-1.138,4.158A3.77,3.77,0,0,1-57.622.205,3.464,3.464,0,0,1-60.5-1.179L-60.636,0H-63.3V-15.75h2.963v5.65a3.375,3.375,0,0,1,2.7-1.2,3.8,3.8,0,0,1,3.184,1.492,6.728,6.728,0,0,1,1.154,4.2Zm-2.963-.215A4.414,4.414,0,0,0-56.8-8.116a1.8,1.8,0,0,0-1.589-.774,1.955,1.955,0,0,0-1.948,1.159v4.378A1.981,1.981,0,0,0-58.37-2.184,1.83,1.83,0,0,0-56.484-3.6,7.3,7.3,0,0,0-56.268-5.66Zm4.942,4.2A1.492,1.492,0,0,1-50.849-2.6a1.692,1.692,0,0,1,1.195-.441,1.706,1.706,0,0,1,1.2.441,1.492,1.492,0,0,1,.477,1.148,1.472,1.472,0,0,1-.472,1.133,1.713,1.713,0,0,1-1.21.436,1.7,1.7,0,0,1-1.2-.436A1.472,1.472,0,0,1-51.326-1.456Zm16.9-4.009h-2.451V0h-3.076V-14.93h5.547a6.271,6.271,0,0,1,4.081,1.179,4.07,4.07,0,0,1,1.436,3.333,4.593,4.593,0,0,1-.661,2.548,4.511,4.511,0,0,1-2,1.625l3.23,6.1V0h-3.3Zm-2.451-2.492H-34.4a2.541,2.541,0,0,0,1.794-.59,2.107,2.107,0,0,0,.636-1.625,2.256,2.256,0,0,0-.6-1.661,2.493,2.493,0,0,0-1.841-.6h-2.471ZM-21.641.205a5.447,5.447,0,0,1-3.973-1.5,5.321,5.321,0,0,1-1.533-3.989v-.287A6.7,6.7,0,0,1-26.5-8.557a4.741,4.741,0,0,1,1.83-2.03,5.137,5.137,0,0,1,2.7-.713,4.6,4.6,0,0,1,3.584,1.436,5.833,5.833,0,0,1,1.307,4.071v1.21h-7.065a2.753,2.753,0,0,0,.866,1.743,2.619,2.619,0,0,0,1.83.656A3.2,3.2,0,0,0-18.77-3.425l1.456,1.63a4.449,4.449,0,0,1-1.8,1.471A5.921,5.921,0,0,1-21.641.205Zm-.338-9.116a1.852,1.852,0,0,0-1.43.6,3.093,3.093,0,0,0-.7,1.71h4.122V-6.84a2.206,2.206,0,0,0-.533-1.529A1.91,1.91,0,0,0-21.979-8.911ZM-9.387-3.066a.955.955,0,0,0-.538-.856,6.115,6.115,0,0,0-1.728-.559q-3.958-.831-3.958-3.363a3.049,3.049,0,0,1,1.225-2.466,4.943,4.943,0,0,1,3.2-.99,5.32,5.32,0,0,1,3.379.995A3.135,3.135,0,0,1-6.537-7.721H-9.5a1.434,1.434,0,0,0-.41-1.051,1.736,1.736,0,0,0-1.282-.415,1.774,1.774,0,0,0-1.159.338,1.068,1.068,0,0,0-.41.861.913.913,0,0,0,.467.795,4.8,4.8,0,0,0,1.574.523,12.856,12.856,0,0,1,1.866.5A3.066,3.066,0,0,1-6.506-3.189a2.894,2.894,0,0,1-1.3,2.456,5.618,5.618,0,0,1-3.363.938,5.867,5.867,0,0,1-2.476-.5,4.155,4.155,0,0,1-1.7-1.364,3.169,3.169,0,0,1-.615-1.871h2.81a1.547,1.547,0,0,0,.584,1.21,2.318,2.318,0,0,0,1.456.42A2.146,2.146,0,0,0-9.823-2.22,1,1,0,0,0-9.387-3.066ZM2.046-1.128A3.716,3.716,0,0,1-.99.205,3.5,3.5,0,0,1-3.712-.82a4.377,4.377,0,0,1-.959-3v-7.27h2.963v7.176q0,1.735,1.579,1.735A2.14,2.14,0,0,0,1.943-3.231v-7.863H4.917V0H2.128ZM10.28,0H7.306V-15.75H10.28Zm5.988-13.822v2.728h1.9v2.174h-1.9v5.537A1.322,1.322,0,0,0,16.5-2.5a1.184,1.184,0,0,0,.9.267,4.726,4.726,0,0,0,.872-.072V-.062a6.1,6.1,0,0,1-1.794.267q-3.117,0-3.179-3.148V-8.921h-1.62v-2.174H13.3v-2.728ZM26.245,0a3.291,3.291,0,0,1-.3-.995,3.586,3.586,0,0,1-2.8,1.2,3.939,3.939,0,0,1-2.7-.943,3.034,3.034,0,0,1-1.072-2.379,3.135,3.135,0,0,1,1.307-2.707,6.451,6.451,0,0,1,3.779-.954h1.364v-.636a1.828,1.828,0,0,0-.395-1.23,1.553,1.553,0,0,0-1.246-.461,1.766,1.766,0,0,0-1.174.359,1.219,1.219,0,0,0-.426.984H19.621a2.977,2.977,0,0,1,.595-1.784A3.931,3.931,0,0,1,21.9-10.833a6.129,6.129,0,0,1,2.44-.467,4.842,4.842,0,0,1,3.256,1.031,3.605,3.605,0,0,1,1.2,2.9v4.809a5.3,5.3,0,0,0,.441,2.389V0ZM23.794-2.061A2.552,2.552,0,0,0,25-2.353a1.919,1.919,0,0,0,.82-.784V-5.045H24.717q-2.225,0-2.369,1.538l-.01.174a1.186,1.186,0,0,0,.39.913A1.514,1.514,0,0,0,23.794-2.061Zm6.819-3.568a6.686,6.686,0,0,1,1.164-4.132A3.776,3.776,0,0,1,34.961-11.3a3.4,3.4,0,0,1,2.676,1.21v-5.66h2.974V0H37.934l-.144-1.179A3.487,3.487,0,0,1,34.94.205,3.766,3.766,0,0,1,31.8-1.338,6.9,6.9,0,0,1,30.613-5.629Zm2.963.221a4.38,4.38,0,0,0,.543,2.393,1.77,1.77,0,0,0,1.579.832,1.983,1.983,0,0,0,1.938-1.16V-7.73a1.954,1.954,0,0,0-1.917-1.16Q33.576-8.89,33.576-5.409Zm8.87-.241a6.58,6.58,0,0,1,.636-2.943,4.654,4.654,0,0,1,1.83-2,5.34,5.34,0,0,1,2.774-.708,5.052,5.052,0,0,1,3.666,1.374,5.514,5.514,0,0,1,1.584,3.732l.021.759a5.8,5.8,0,0,1-1.425,4.1A4.954,4.954,0,0,1,47.706.205a4.979,4.979,0,0,1-3.83-1.538,5.9,5.9,0,0,1-1.43-4.184Zm2.963.21A4.147,4.147,0,0,0,46-3.021a1.962,1.962,0,0,0,1.7.837,1.966,1.966,0,0,0,1.682-.827,4.538,4.538,0,0,0,.6-2.644,4.106,4.106,0,0,0-.6-2.4,1.967,1.967,0,0,0-1.7-.852A1.934,1.934,0,0,0,46-8.063,4.614,4.614,0,0,0,45.409-5.44ZM60.79-3.066a.955.955,0,0,0-.538-.856,6.115,6.115,0,0,0-1.728-.559q-3.958-.831-3.958-3.363a3.049,3.049,0,0,1,1.225-2.466A4.943,4.943,0,0,1,59-11.3a5.32,5.32,0,0,1,3.379.995,3.135,3.135,0,0,1,1.266,2.584H60.677a1.434,1.434,0,0,0-.41-1.051,1.736,1.736,0,0,0-1.282-.415,1.774,1.774,0,0,0-1.159.338,1.068,1.068,0,0,0-.41.861.913.913,0,0,0,.467.795,4.8,4.8,0,0,0,1.574.523,12.856,12.856,0,0,1,1.866.5,3.066,3.066,0,0,1,2.348,2.984,2.894,2.894,0,0,1-1.3,2.456,5.618,5.618,0,0,1-3.363.938,5.867,5.867,0,0,1-2.476-.5,4.155,4.155,0,0,1-1.7-1.364,3.169,3.169,0,0,1-.615-1.871h2.81a1.547,1.547,0,0,0,.584,1.21,2.318,2.318,0,0,0,1.456.42,2.146,2.146,0,0,0,1.287-.323A1,1,0,0,0,60.79-3.066ZM-45.753,21.806l2.051-6.9h3.179l-4.46,12.817-.246.584a3.382,3.382,0,0,1-3.281,2.174,4.663,4.663,0,0,1-1.312-.195V28.041l.451.01a2.438,2.438,0,0,0,1.256-.256,1.684,1.684,0,0,0,.651-.851l.349-.913L-51,14.905h3.189Zm11.167-1.456a6.58,6.58,0,0,1,.636-2.943,4.654,4.654,0,0,1,1.83-2,5.34,5.34,0,0,1,2.774-.708,5.052,5.052,0,0,1,3.666,1.374A5.514,5.514,0,0,1-24.1,19.807l.021.759a5.8,5.8,0,0,1-1.425,4.1,4.954,4.954,0,0,1-3.825,1.543,4.979,4.979,0,0,1-3.83-1.538,5.9,5.9,0,0,1-1.43-4.184Zm2.963.21a4.147,4.147,0,0,0,.595,2.418,1.962,1.962,0,0,0,1.7.837,1.966,1.966,0,0,0,1.682-.827,4.538,4.538,0,0,0,.6-2.644,4.106,4.106,0,0,0-.6-2.4,1.967,1.967,0,0,0-1.7-.852,1.934,1.934,0,0,0-1.682.847A4.614,4.614,0,0,0-31.623,20.56Zm19.37-.005a6.718,6.718,0,0,1-1.138,4.158,3.77,3.77,0,0,1-3.179,1.492,3.464,3.464,0,0,1-2.881-1.384L-19.585,26h-2.666V10.25h2.963V15.9a3.375,3.375,0,0,1,2.7-1.2,3.8,3.8,0,0,1,3.184,1.492,6.728,6.728,0,0,1,1.154,4.2Zm-2.963-.215a4.414,4.414,0,0,0-.533-2.456,1.8,1.8,0,0,0-1.589-.774,1.955,1.955,0,0,0-1.948,1.159v4.378a1.981,1.981,0,0,0,1.969,1.169A1.83,1.83,0,0,0-15.432,22.4,7.3,7.3,0,0,0-15.217,20.34Zm7.926-5.435V26.6a3.969,3.969,0,0,1-.974,2.856,3.7,3.7,0,0,1-2.81,1.02,6.025,6.025,0,0,1-1.466-.174V27.958a5.563,5.563,0,0,0,.933.092q1.343,0,1.343-1.425V14.905ZM-10.5,12.034a1.459,1.459,0,0,1,.446-1.1,1.676,1.676,0,0,1,1.215-.431,1.676,1.676,0,0,1,1.215.431,1.459,1.459,0,0,1,.446,1.1,1.455,1.455,0,0,1-.456,1.107,1.684,1.684,0,0,1-1.2.431,1.684,1.684,0,0,1-1.2-.431A1.455,1.455,0,0,1-10.5,12.034ZM.133,26.205a5.447,5.447,0,0,1-3.973-1.5,5.321,5.321,0,0,1-1.533-3.989v-.287a6.7,6.7,0,0,1,.646-2.989,4.741,4.741,0,0,1,1.83-2.03,5.137,5.137,0,0,1,2.7-.713,4.6,4.6,0,0,1,3.584,1.436A5.833,5.833,0,0,1,4.7,20.207v1.21H-2.369A2.753,2.753,0,0,0-1.5,23.16a2.619,2.619,0,0,0,1.83.656A3.2,3.2,0,0,0,3,22.575l1.456,1.63a4.449,4.449,0,0,1-1.8,1.471A5.921,5.921,0,0,1,.133,26.205Zm-.338-9.116a1.852,1.852,0,0,0-1.43.6,3.093,3.093,0,0,0-.7,1.71H1.784V19.16a2.206,2.206,0,0,0-.533-1.529A1.91,1.91,0,0,0-.205,17.089ZM9.926,12.178v2.728h1.9v2.174h-1.9v5.537a1.322,1.322,0,0,0,.236.882,1.184,1.184,0,0,0,.9.267,4.726,4.726,0,0,0,.872-.072v2.246a6.1,6.1,0,0,1-1.794.267q-3.117,0-3.179-3.148V17.079H5.342V14.905h1.62V12.178ZM16.6,26H13.627V14.905H16.6ZM13.453,12.034a1.459,1.459,0,0,1,.446-1.1,1.676,1.676,0,0,1,1.215-.431,1.679,1.679,0,0,1,1.21.431,1.566,1.566,0,0,1-.005,2.2,1.684,1.684,0,0,1-1.2.431,1.684,1.684,0,0,1-1.2-.431A1.455,1.455,0,0,1,13.453,12.034ZM23.194,22.38l2.061-7.475h3.1L24.609,26h-2.83L18.037,14.905h3.1Zm5.845-2.03a6.58,6.58,0,0,1,.636-2.943,4.654,4.654,0,0,1,1.83-2,5.34,5.34,0,0,1,2.774-.708,5.052,5.052,0,0,1,3.666,1.374,5.514,5.514,0,0,1,1.584,3.732l.021.759a5.8,5.8,0,0,1-1.425,4.1A4.954,4.954,0,0,1,34.3,26.205a4.979,4.979,0,0,1-3.83-1.538,5.9,5.9,0,0,1-1.43-4.184ZM32,20.56a4.147,4.147,0,0,0,.595,2.418,2.137,2.137,0,0,0,3.384.01,4.538,4.538,0,0,0,.6-2.644,4.106,4.106,0,0,0-.6-2.4,1.967,1.967,0,0,0-1.7-.852,1.934,1.934,0,0,0-1.682.847A4.614,4.614,0,0,0,32,20.56Zm15.381,2.374a.955.955,0,0,0-.538-.856,6.115,6.115,0,0,0-1.728-.559q-3.958-.831-3.958-3.363a3.049,3.049,0,0,1,1.225-2.466,4.943,4.943,0,0,1,3.2-.99,5.32,5.32,0,0,1,3.379.995,3.135,3.135,0,0,1,1.266,2.584H47.271a1.434,1.434,0,0,0-.41-1.051,1.736,1.736,0,0,0-1.282-.415,1.774,1.774,0,0,0-1.159.338,1.068,1.068,0,0,0-.41.861.913.913,0,0,0,.467.795,4.8,4.8,0,0,0,1.574.523,12.856,12.856,0,0,1,1.866.5,3.066,3.066,0,0,1,2.348,2.984,2.894,2.894,0,0,1-1.3,2.456,5.618,5.618,0,0,1-3.363.938,5.867,5.867,0,0,1-2.476-.5,4.155,4.155,0,0,1-1.7-1.364,3.169,3.169,0,0,1-.615-1.871h2.81a1.547,1.547,0,0,0,.584,1.21,2.318,2.318,0,0,0,1.456.42,2.146,2.146,0,0,0,1.287-.323A1,1,0,0,0,47.383,22.934Z" transform="translate(998 5232.048)" fill="#040505"/>
    <path id="Trazado_233373" data-name="Trazado 233373" d="M-50.476-7.7h-7.031v4.761h8.252V0H-61.169V-17.773h11.89v2.966h-8.228v4.236h7.031ZM-40.186-3.65a1.137,1.137,0,0,0-.641-1.019,7.28,7.28,0,0,0-2.057-.665q-4.712-.989-4.712-4a3.629,3.629,0,0,1,1.459-2.936,5.884,5.884,0,0,1,3.815-1.178A6.333,6.333,0,0,1-38.3-12.268a3.732,3.732,0,0,1,1.508,3.076H-40.32a1.707,1.707,0,0,0-.488-1.251,2.066,2.066,0,0,0-1.526-.494,2.111,2.111,0,0,0-1.379.4A1.272,1.272,0,0,0-44.2-9.509a1.087,1.087,0,0,0,.555.946,5.714,5.714,0,0,0,1.874.623,15.3,15.3,0,0,1,2.222.592q2.8,1.025,2.8,3.552a3.445,3.445,0,0,1-1.55,2.924,6.688,6.688,0,0,1-4,1.117,6.985,6.985,0,0,1-2.948-.592,4.946,4.946,0,0,1-2.02-1.624A3.772,3.772,0,0,1-48.01-4.2h3.345a1.842,1.842,0,0,0,.7,1.44,2.76,2.76,0,0,0,1.733.5A2.554,2.554,0,0,0-40.7-2.643,1.2,1.2,0,0,0-40.186-3.65Zm9.924-12.805v3.247H-28v2.588h-2.258v6.592a1.574,1.574,0,0,0,.281,1.05,1.41,1.41,0,0,0,1.074.317,5.626,5.626,0,0,0,1.038-.085V-.073A7.263,7.263,0,0,1-30,.244q-3.711,0-3.784-3.748V-10.62h-1.929v-2.588h1.929v-3.247ZM-18.384,0a3.918,3.918,0,0,1-.354-1.184A4.269,4.269,0,0,1-22.07.244,4.69,4.69,0,0,1-25.287-.879a3.612,3.612,0,0,1-1.276-2.832,3.733,3.733,0,0,1,1.556-3.223,7.68,7.68,0,0,1,4.5-1.135h1.624v-.757a2.177,2.177,0,0,0-.47-1.465,1.849,1.849,0,0,0-1.483-.549,2.1,2.1,0,0,0-1.4.427,1.451,1.451,0,0,0-.507,1.172H-26.27a3.544,3.544,0,0,1,.708-2.124,4.68,4.68,0,0,1,2-1.532,7.3,7.3,0,0,1,2.905-.555,5.764,5.764,0,0,1,3.876,1.227,4.292,4.292,0,0,1,1.434,3.448v5.725a6.314,6.314,0,0,0,.525,2.844V0ZM-21.3-2.454a3.038,3.038,0,0,0,1.44-.348,2.285,2.285,0,0,0,.977-.934V-6.006H-20.2q-2.649,0-2.82,1.831l-.012.208a1.412,1.412,0,0,0,.464,1.086A1.8,1.8,0,0,0-21.3-2.454Zm1.343-16.3h3.845l-3.381,3.784h-2.869Zm10.571,5.542.11,1.526a4.611,4.611,0,0,1,3.8-1.77,3.832,3.832,0,0,1,3.125,1.233,5.752,5.752,0,0,1,1.05,3.687V0H-4.834V-8.447a2.289,2.289,0,0,0-.488-1.63,2.186,2.186,0,0,0-1.624-.507A2.427,2.427,0,0,0-9.18-9.314V0h-3.528V-13.208ZM.818-6.7A7.96,7.96,0,0,1,2.2-11.621a4.5,4.5,0,0,1,3.79-1.831,4.045,4.045,0,0,1,3.186,1.44V-18.75h3.54V0H9.534L9.363-1.4A4.151,4.151,0,0,1,5.969.244,4.483,4.483,0,0,1,2.228-1.593,8.216,8.216,0,0,1,.818-6.7Zm3.528.263A5.214,5.214,0,0,0,4.993-3.59a2.108,2.108,0,0,0,1.88.99A2.361,2.361,0,0,0,9.18-3.982V-9.2A2.327,2.327,0,0,0,6.9-10.583Q4.346-10.583,4.346-6.439ZM23.108,0a3.918,3.918,0,0,1-.354-1.184A4.269,4.269,0,0,1,19.421.244,4.69,4.69,0,0,1,16.2-.879a3.612,3.612,0,0,1-1.276-2.832,3.733,3.733,0,0,1,1.556-3.223,7.68,7.68,0,0,1,4.5-1.135h1.624v-.757a2.177,2.177,0,0,0-.47-1.465,1.849,1.849,0,0,0-1.483-.549,2.1,2.1,0,0,0-1.4.427,1.451,1.451,0,0,0-.507,1.172H15.222a3.544,3.544,0,0,1,.708-2.124,4.68,4.68,0,0,1,2-1.532,7.3,7.3,0,0,1,2.905-.555,5.764,5.764,0,0,1,3.876,1.227,4.292,4.292,0,0,1,1.434,3.448v5.725a6.314,6.314,0,0,0,.525,2.844V0ZM20.19-2.454a3.038,3.038,0,0,0,1.44-.348,2.285,2.285,0,0,0,.977-.934V-6.006H21.289q-2.649,0-2.82,1.831l-.012.208a1.412,1.412,0,0,0,.464,1.086A1.8,1.8,0,0,0,20.19-2.454ZM36.279-9.9a9.584,9.584,0,0,0-1.27-.1,2.584,2.584,0,0,0-2.625,1.355V0H28.857V-13.208H32.19l.1,1.575a3.269,3.269,0,0,1,2.942-1.819,3.7,3.7,0,0,1,1.1.159ZM43.823.244a6.484,6.484,0,0,1-4.73-1.782,6.335,6.335,0,0,1-1.825-4.749v-.342a7.979,7.979,0,0,1,.769-3.558A5.644,5.644,0,0,1,40.216-12.6a6.116,6.116,0,0,1,3.217-.848A5.482,5.482,0,0,1,47.7-11.743,6.944,6.944,0,0,1,49.255-6.9v1.44H40.845a3.277,3.277,0,0,0,1.031,2.075,3.118,3.118,0,0,0,2.179.781,3.808,3.808,0,0,0,3.186-1.477l1.733,1.941A5.3,5.3,0,0,1,46.826-.385,7.049,7.049,0,0,1,43.823.244Zm-.4-10.852a2.2,2.2,0,0,0-1.7.711,3.682,3.682,0,0,0-.836,2.035h4.907v-.282a2.626,2.626,0,0,0-.635-1.821A2.274,2.274,0,0,0,43.42-10.608ZM58.411-3.65a1.137,1.137,0,0,0-.641-1.019,7.28,7.28,0,0,0-2.057-.665Q51-6.323,51-9.338a3.629,3.629,0,0,1,1.459-2.936,5.884,5.884,0,0,1,3.815-1.178A6.333,6.333,0,0,1,60.3-12.268,3.732,3.732,0,0,1,61.8-9.192H58.276a1.707,1.707,0,0,0-.488-1.251,2.066,2.066,0,0,0-1.526-.494,2.111,2.111,0,0,0-1.379.4,1.272,1.272,0,0,0-.488,1.025,1.087,1.087,0,0,0,.555.946,5.714,5.714,0,0,0,1.874.623,15.3,15.3,0,0,1,2.222.592q2.8,1.025,2.8,3.552a3.445,3.445,0,0,1-1.55,2.924,6.688,6.688,0,0,1-4,1.117,6.985,6.985,0,0,1-2.948-.592,4.946,4.946,0,0,1-2.02-1.624A3.772,3.772,0,0,1,50.586-4.2h3.345a1.842,1.842,0,0,0,.7,1.44,2.76,2.76,0,0,0,1.733.5,2.554,2.554,0,0,0,1.532-.385A1.2,1.2,0,0,0,58.411-3.65ZM-57.025,23.3a7.96,7.96,0,0,1,1.385-4.919,4.5,4.5,0,0,1,3.79-1.831,4.045,4.045,0,0,1,3.186,1.44V11.25h3.54V30h-3.186l-.171-1.4a4.151,4.151,0,0,1-3.394,1.648,4.483,4.483,0,0,1-3.741-1.837A8.216,8.216,0,0,1-57.025,23.3Zm3.528.263a5.214,5.214,0,0,0,.647,2.849,2.108,2.108,0,0,0,1.88.99,2.361,2.361,0,0,0,2.307-1.381V20.8a2.327,2.327,0,0,0-2.283-1.381Q-53.5,19.417-53.5,23.561Zm17.188,6.683a6.484,6.484,0,0,1-4.73-1.782,6.335,6.335,0,0,1-1.825-4.749v-.342a7.979,7.979,0,0,1,.769-3.558A5.644,5.644,0,0,1-39.917,17.4a6.116,6.116,0,0,1,3.217-.848,5.482,5.482,0,0,1,4.266,1.709A6.944,6.944,0,0,1-30.878,23.1v1.44h-8.411a3.277,3.277,0,0,0,1.031,2.075,3.118,3.118,0,0,0,2.179.781,3.808,3.808,0,0,0,3.186-1.477l1.733,1.941a5.3,5.3,0,0,1-2.148,1.752A7.049,7.049,0,0,1-36.31,30.244Zm-.4-10.852a2.2,2.2,0,0,0-1.7.711,3.682,3.682,0,0,0-.836,2.035h4.907v-.282a2.626,2.626,0,0,0-.635-1.821A2.274,2.274,0,0,0-36.713,19.392Zm25.964,4.126a8,8,0,0,1-1.355,4.95,4.488,4.488,0,0,1-3.784,1.776,4.124,4.124,0,0,1-3.43-1.648l-.159,1.4H-22.65V11.25h3.528v6.726a4.018,4.018,0,0,1,3.21-1.428,4.525,4.525,0,0,1,3.79,1.776,8.009,8.009,0,0,1,1.373,5Zm-3.528-.256a5.254,5.254,0,0,0-.635-2.924,2.146,2.146,0,0,0-1.892-.922A2.327,2.327,0,0,0-19.122,20.8v5.212A2.359,2.359,0,0,0-16.779,27.4a2.178,2.178,0,0,0,2.246-1.685A8.69,8.69,0,0,0-14.276,23.262Zm13.611,5.4a4.424,4.424,0,0,1-3.613,1.587A4.172,4.172,0,0,1-7.52,29.023a5.211,5.211,0,0,1-1.141-3.577V16.792h3.528v8.543q0,2.065,1.88,2.065A2.547,2.547,0,0,0-.787,26.153V16.792h3.54V30H-.568Zm12.158,1.587a6.484,6.484,0,0,1-4.73-1.782,6.335,6.335,0,0,1-1.825-4.749v-.342a7.979,7.979,0,0,1,.769-3.558A5.644,5.644,0,0,1,7.886,17.4a6.116,6.116,0,0,1,3.217-.848,5.482,5.482,0,0,1,4.266,1.709A6.944,6.944,0,0,1,16.925,23.1v1.44H8.514a3.277,3.277,0,0,0,1.031,2.075,3.118,3.118,0,0,0,2.179.781,3.808,3.808,0,0,0,3.186-1.477l1.733,1.941A5.3,5.3,0,0,1,14.5,29.615,7.049,7.049,0,0,1,11.493,30.244Zm-.4-10.852a2.2,2.2,0,0,0-1.7.711,3.682,3.682,0,0,0-.836,2.035h4.907v-.282a2.626,2.626,0,0,0-.635-1.821A2.274,2.274,0,0,0,11.09,19.392Zm11.084-2.6.11,1.526a4.611,4.611,0,0,1,3.8-1.77,3.832,3.832,0,0,1,3.125,1.233,5.752,5.752,0,0,1,1.05,3.687V30H26.727V21.553a2.289,2.289,0,0,0-.488-1.63,2.186,2.186,0,0,0-1.624-.507,2.427,2.427,0,0,0-2.234,1.27V30H18.854V16.792ZM40.582,30a3.918,3.918,0,0,1-.354-1.184A4.269,4.269,0,0,1,36.9,30.244a4.69,4.69,0,0,1-3.217-1.123A3.612,3.612,0,0,1,32.4,26.289a3.733,3.733,0,0,1,1.556-3.223,7.68,7.68,0,0,1,4.5-1.135h1.624v-.757a2.177,2.177,0,0,0-.47-1.465,1.849,1.849,0,0,0-1.483-.549,2.1,2.1,0,0,0-1.4.427,1.451,1.451,0,0,0-.507,1.172H32.7a3.544,3.544,0,0,1,.708-2.124,4.68,4.68,0,0,1,2-1.532,7.3,7.3,0,0,1,2.905-.555,5.764,5.764,0,0,1,3.876,1.227,4.292,4.292,0,0,1,1.434,3.448v5.725a6.314,6.314,0,0,0,.525,2.844V30Zm-2.917-2.454a3.038,3.038,0,0,0,1.44-.348,2.285,2.285,0,0,0,.977-.934V23.994H38.763q-2.649,0-2.82,1.831l-.012.208a1.412,1.412,0,0,0,.464,1.086A1.8,1.8,0,0,0,37.665,27.546Zm15.82-1.2a1.137,1.137,0,0,0-.641-1.019,7.28,7.28,0,0,0-2.057-.665q-4.712-.989-4.712-4a3.629,3.629,0,0,1,1.459-2.936,5.884,5.884,0,0,1,3.815-1.178,6.333,6.333,0,0,1,4.022,1.184,3.732,3.732,0,0,1,1.508,3.076H53.351a1.707,1.707,0,0,0-.488-1.251,2.066,2.066,0,0,0-1.526-.494,2.111,2.111,0,0,0-1.379.4,1.272,1.272,0,0,0-.488,1.025,1.087,1.087,0,0,0,.555.946,5.714,5.714,0,0,0,1.874.623,15.3,15.3,0,0,1,2.222.592q2.8,1.025,2.8,3.552a3.445,3.445,0,0,1-1.55,2.924,6.688,6.688,0,0,1-4,1.117,6.985,6.985,0,0,1-2.948-.592,4.946,4.946,0,0,1-2.02-1.624A3.772,3.772,0,0,1,45.66,25.8h3.345a1.842,1.842,0,0,0,.7,1.44,2.76,2.76,0,0,0,1.733.5,2.554,2.554,0,0,0,1.532-.385A1.2,1.2,0,0,0,53.485,26.35ZM-55.444,53.518a7.921,7.921,0,0,1-1.385,4.889,4.442,4.442,0,0,1-3.741,1.837,4.115,4.115,0,0,1-3.235-1.392v6.226h-3.528V46.792h3.271l.122,1.294A4.146,4.146,0,0,1-60.6,46.548a4.472,4.472,0,0,1,3.8,1.807,8.136,8.136,0,0,1,1.355,4.98Zm-3.528-.256a5.2,5.2,0,0,0-.653-2.844,2.127,2.127,0,0,0-1.9-1,2.31,2.31,0,0,0-2.283,1.27v5.408A2.349,2.349,0,0,0-61.5,57.4Q-58.972,57.4-58.972,53.262ZM-45.837,50.1a9.584,9.584,0,0,0-1.27-.1,2.584,2.584,0,0,0-2.625,1.355V60h-3.528V46.792h3.333l.1,1.575a3.269,3.269,0,0,1,2.942-1.819,3.7,3.7,0,0,1,1.1.159Zm8.984,9.9a3.918,3.918,0,0,1-.354-1.184,4.269,4.269,0,0,1-3.333,1.428,4.69,4.69,0,0,1-3.217-1.123,3.612,3.612,0,0,1-1.276-2.832,3.733,3.733,0,0,1,1.556-3.223,7.68,7.68,0,0,1,4.5-1.135h1.624v-.757a2.177,2.177,0,0,0-.47-1.465,1.849,1.849,0,0,0-1.483-.549,2.1,2.1,0,0,0-1.4.427,1.451,1.451,0,0,0-.507,1.172h-3.528a3.544,3.544,0,0,1,.708-2.124,4.68,4.68,0,0,1,2-1.532,7.3,7.3,0,0,1,2.905-.555,5.764,5.764,0,0,1,3.876,1.227,4.292,4.292,0,0,1,1.434,3.448v5.725a6.314,6.314,0,0,0,.525,2.844V60Zm-2.917-2.454a3.038,3.038,0,0,0,1.44-.348,2.285,2.285,0,0,0,.977-.934V53.994h-1.318q-2.649,0-2.82,1.831l-.012.208a1.412,1.412,0,0,0,.464,1.086A1.8,1.8,0,0,0-39.771,57.546Zm1.343-16.3h3.845l-3.381,3.784h-2.869ZM-25.61,57.4a2.314,2.314,0,0,0,1.587-.537,1.882,1.882,0,0,0,.635-1.428h3.308a4.525,4.525,0,0,1-.732,2.46,4.833,4.833,0,0,1-1.971,1.733,6.17,6.17,0,0,1-2.765.616,5.734,5.734,0,0,1-4.468-1.8,7.125,7.125,0,0,1-1.636-4.974v-.232a7.044,7.044,0,0,1,1.624-4.871,5.667,5.667,0,0,1,4.456-1.819,5.555,5.555,0,0,1,3.973,1.41,4.992,4.992,0,0,1,1.52,3.754h-3.308a2.424,2.424,0,0,0-.635-1.675,2.116,2.116,0,0,0-1.611-.644,2.125,2.125,0,0,0-1.862.9,5.208,5.208,0,0,0-.629,2.916v.367a5.274,5.274,0,0,0,.623,2.934A2.151,2.151,0,0,0-25.61,57.4Zm11.768-13.855v3.247h2.258V49.38h-2.258v6.592a1.574,1.574,0,0,0,.281,1.05,1.41,1.41,0,0,0,1.074.317,5.626,5.626,0,0,0,1.038-.085v2.673a7.262,7.262,0,0,1-2.136.317q-3.711,0-3.784-3.748V49.38H-19.3V46.792h1.929V43.545ZM-5.9,60h-3.54V46.792H-5.9ZM-9.644,43.374a1.737,1.737,0,0,1,.531-1.306,2,2,0,0,1,1.447-.513,2,2,0,0,1,1.44.513,1.727,1.727,0,0,1,.537,1.306,1.732,1.732,0,0,1-.543,1.318,2,2,0,0,1-1.434.513A2,2,0,0,1-9.1,44.692,1.732,1.732,0,0,1-9.644,43.374ZM2.5,57.4a2.314,2.314,0,0,0,1.587-.537,1.882,1.882,0,0,0,.635-1.428H8.032a4.525,4.525,0,0,1-.732,2.46,4.833,4.833,0,0,1-1.971,1.733,6.17,6.17,0,0,1-2.765.616,5.734,5.734,0,0,1-4.468-1.8A7.125,7.125,0,0,1-3.54,53.469v-.232a7.044,7.044,0,0,1,1.624-4.871,5.667,5.667,0,0,1,4.456-1.819,5.555,5.555,0,0,1,3.973,1.41,4.992,4.992,0,0,1,1.52,3.754H4.724a2.424,2.424,0,0,0-.635-1.675,2.116,2.116,0,0,0-1.611-.644,2.125,2.125,0,0,0-1.862.9,5.208,5.208,0,0,0-.629,2.916v.367A5.274,5.274,0,0,0,.61,56.507,2.151,2.151,0,0,0,2.5,57.4ZM17.7,60a3.918,3.918,0,0,1-.354-1.184,4.269,4.269,0,0,1-3.333,1.428A4.69,4.69,0,0,1,10.8,59.121a3.612,3.612,0,0,1-1.276-2.832,3.733,3.733,0,0,1,1.556-3.223,7.68,7.68,0,0,1,4.5-1.135H17.2v-.757a2.177,2.177,0,0,0-.47-1.465,1.849,1.849,0,0,0-1.483-.549,2.1,2.1,0,0,0-1.4.427,1.451,1.451,0,0,0-.507,1.172H9.814a3.544,3.544,0,0,1,.708-2.124,4.68,4.68,0,0,1,2-1.532,7.3,7.3,0,0,1,2.905-.555,5.764,5.764,0,0,1,3.876,1.227,4.292,4.292,0,0,1,1.434,3.448v5.725a6.314,6.314,0,0,0,.525,2.844V60Zm-2.917-2.454a3.038,3.038,0,0,0,1.44-.348,2.285,2.285,0,0,0,.977-.934V53.994H15.881q-2.649,0-2.82,1.831l-.012.208a1.412,1.412,0,0,0,.464,1.086A1.8,1.8,0,0,0,14.783,57.546Zm15.82-1.2a1.137,1.137,0,0,0-.641-1.019,7.28,7.28,0,0,0-2.057-.665q-4.712-.989-4.712-4a3.629,3.629,0,0,1,1.459-2.936,5.884,5.884,0,0,1,3.815-1.178,6.333,6.333,0,0,1,4.022,1.184A3.732,3.732,0,0,1,34,50.808H30.469a1.707,1.707,0,0,0-.488-1.251,2.066,2.066,0,0,0-1.526-.494,2.111,2.111,0,0,0-1.379.4,1.272,1.272,0,0,0-.488,1.025,1.087,1.087,0,0,0,.555.946,5.714,5.714,0,0,0,1.874.623,15.3,15.3,0,0,1,2.222.592q2.8,1.025,2.8,3.552a3.445,3.445,0,0,1-1.55,2.924,6.688,6.688,0,0,1-4,1.117,6.985,6.985,0,0,1-2.948-.592,4.946,4.946,0,0,1-2.02-1.624,3.772,3.772,0,0,1-.732-2.228h3.345a1.842,1.842,0,0,0,.7,1.44,2.76,2.76,0,0,0,1.733.5,2.554,2.554,0,0,0,1.532-.385A1.2,1.2,0,0,0,30.6,56.35Zm18.005,3.894a6.484,6.484,0,0,1-4.73-1.782,6.335,6.335,0,0,1-1.825-4.749v-.342a7.979,7.979,0,0,1,.769-3.558A5.644,5.644,0,0,1,45,47.4a6.116,6.116,0,0,1,3.217-.848,5.482,5.482,0,0,1,4.266,1.709A6.944,6.944,0,0,1,54.041,53.1v1.44H45.63a3.277,3.277,0,0,0,1.031,2.075,3.118,3.118,0,0,0,2.179.781,3.808,3.808,0,0,0,3.186-1.477l1.733,1.941a5.3,5.3,0,0,1-2.148,1.752A7.049,7.049,0,0,1,48.608,60.244Zm-.4-10.852a2.2,2.2,0,0,0-1.7.711,3.682,3.682,0,0,0-.836,2.035h4.907v-.282a2.626,2.626,0,0,0-.635-1.821A2.274,2.274,0,0,0,48.206,49.392Zm11.084-2.6.11,1.526a4.611,4.611,0,0,1,3.8-1.77,3.832,3.832,0,0,1,3.125,1.233,5.752,5.752,0,0,1,1.05,3.687V60H63.843V51.553a2.289,2.289,0,0,0-.488-1.63,2.186,2.186,0,0,0-1.624-.507,2.427,2.427,0,0,0-2.234,1.27V60H55.969V46.792ZM-52.966,86.35a1.137,1.137,0,0,0-.641-1.019,7.28,7.28,0,0,0-2.057-.665q-4.712-.989-4.712-4a3.629,3.629,0,0,1,1.459-2.936A5.884,5.884,0,0,1-55.1,76.548a6.333,6.333,0,0,1,4.022,1.184,3.732,3.732,0,0,1,1.508,3.076H-53.1a1.707,1.707,0,0,0-.488-1.251,2.066,2.066,0,0,0-1.526-.494,2.111,2.111,0,0,0-1.379.4,1.272,1.272,0,0,0-.488,1.025,1.087,1.087,0,0,0,.555.946,5.714,5.714,0,0,0,1.874.623,15.3,15.3,0,0,1,2.222.592q2.8,1.025,2.8,3.552a3.445,3.445,0,0,1-1.55,2.924,6.688,6.688,0,0,1-4,1.117,6.985,6.985,0,0,1-2.948-.592,4.946,4.946,0,0,1-2.02-1.624,3.772,3.772,0,0,1-.732-2.228h3.345a1.842,1.842,0,0,0,.7,1.44,2.76,2.76,0,0,0,1.733.5,2.554,2.554,0,0,0,1.532-.385A1.2,1.2,0,0,0-52.966,86.35ZM-43.542,90h-3.54V76.792h3.54ZM-47.29,73.374a1.737,1.737,0,0,1,.531-1.306,2,2,0,0,1,1.447-.513,2,2,0,0,1,1.44.513,1.727,1.727,0,0,1,.537,1.306,1.732,1.732,0,0,1-.543,1.318,2,2,0,0,1-1.434.513,2,2,0,0,1-1.434-.513A1.732,1.732,0,0,1-47.29,73.374Zm9.961,3.418.11,1.477a4.642,4.642,0,0,1,3.8-1.721,3.523,3.523,0,0,1,3.5,2.014,4.535,4.535,0,0,1,3.967-2.014,3.94,3.94,0,0,1,3.2,1.251,5.751,5.751,0,0,1,1.05,3.766V90h-3.54V81.577a2.515,2.515,0,0,0-.439-1.642,1.948,1.948,0,0,0-1.55-.519,2.2,2.2,0,0,0-2.2,1.514l.012,9.07h-3.528V81.589a2.484,2.484,0,0,0-.452-1.66,1.966,1.966,0,0,0-1.538-.513,2.286,2.286,0,0,0-2.173,1.245V90h-3.528V76.792Zm26.245,11.865A4.424,4.424,0,0,1-14.7,90.244a4.172,4.172,0,0,1-3.241-1.221,5.211,5.211,0,0,1-1.141-3.577V76.792h3.528v8.543q0,2.065,1.88,2.065a2.547,2.547,0,0,0,2.466-1.247V76.792h3.54V90h-3.32ZM-1.282,90h-3.54V71.25h3.54ZM9.277,90a3.918,3.918,0,0,1-.354-1.184,4.269,4.269,0,0,1-3.333,1.428,4.69,4.69,0,0,1-3.217-1.123A3.612,3.612,0,0,1,1.1,86.289a3.732,3.732,0,0,1,1.556-3.223,7.68,7.68,0,0,1,4.5-1.135H8.777v-.757a2.177,2.177,0,0,0-.47-1.465,1.849,1.849,0,0,0-1.483-.549,2.1,2.1,0,0,0-1.4.427,1.451,1.451,0,0,0-.507,1.172H1.392A3.544,3.544,0,0,1,2.1,78.635a4.68,4.68,0,0,1,2-1.532,7.3,7.3,0,0,1,2.905-.555,5.764,5.764,0,0,1,3.876,1.227,4.292,4.292,0,0,1,1.434,3.448v5.725a6.314,6.314,0,0,0,.525,2.844V90ZM6.36,87.546A3.038,3.038,0,0,0,7.8,87.2a2.285,2.285,0,0,0,.977-.934V83.994H7.458q-2.649,0-2.82,1.831l-.012.208a1.412,1.412,0,0,0,.464,1.086A1.8,1.8,0,0,0,6.36,87.546ZM20.52,87.4a2.314,2.314,0,0,0,1.587-.537,1.882,1.882,0,0,0,.635-1.428H26.05a4.525,4.525,0,0,1-.732,2.46,4.833,4.833,0,0,1-1.971,1.733,6.17,6.17,0,0,1-2.765.616,5.734,5.734,0,0,1-4.468-1.8,7.125,7.125,0,0,1-1.636-4.974v-.232A7.044,7.044,0,0,1,16.1,78.367a5.667,5.667,0,0,1,4.456-1.819,5.555,5.555,0,0,1,3.973,1.41,4.992,4.992,0,0,1,1.52,3.754H22.742a2.424,2.424,0,0,0-.635-1.675,2.116,2.116,0,0,0-1.611-.644,2.125,2.125,0,0,0-1.862.9,5.208,5.208,0,0,0-.629,2.916v.367a5.274,5.274,0,0,0,.623,2.934A2.151,2.151,0,0,0,20.52,87.4ZM31.787,90h-3.54V76.792h3.54ZM28.04,73.374a1.737,1.737,0,0,1,.531-1.306,2.288,2.288,0,0,1,2.887,0,1.864,1.864,0,0,1-.006,2.625,2.263,2.263,0,0,1-2.869,0A1.732,1.732,0,0,1,28.04,73.374Zm6.1,9.9a7.833,7.833,0,0,1,.757-3.5,5.54,5.54,0,0,1,2.179-2.38,6.357,6.357,0,0,1,3.3-.842,6.014,6.014,0,0,1,4.364,1.636,6.565,6.565,0,0,1,1.886,4.443l.024.9a6.9,6.9,0,0,1-1.7,4.877,5.9,5.9,0,0,1-4.553,1.837,5.927,5.927,0,0,1-4.559-1.831,7.025,7.025,0,0,1-1.7-4.98Zm3.528.25a4.937,4.937,0,0,0,.708,2.879,2.543,2.543,0,0,0,4.028.012,5.4,5.4,0,0,0,.72-3.148,4.888,4.888,0,0,0-.72-2.861,2.341,2.341,0,0,0-2.026-1.015,2.3,2.3,0,0,0-2,1.009A5.493,5.493,0,0,0,37.671,83.524ZM41.077,71.25h3.845l-3.381,3.784H38.672Zm11,5.542.11,1.526a4.611,4.611,0,0,1,3.8-1.77,3.832,3.832,0,0,1,3.125,1.233,5.752,5.752,0,0,1,1.05,3.687V90H56.628V81.553a2.289,2.289,0,0,0-.488-1.63,2.186,2.186,0,0,0-1.624-.507,2.427,2.427,0,0,0-2.234,1.27V90H48.755V76.792Z" transform="translate(791.627 5319.604)" fill="#fff"/>
    <path id="Trazado_233374" data-name="Trazado 233374" d="M-56.836-2.08a1.851,1.851,0,0,0,1.27-.43,1.506,1.506,0,0,0,.508-1.143h2.646A3.62,3.62,0,0,1-53-1.685,3.866,3.866,0,0,1-54.575-.3,4.936,4.936,0,0,1-56.787.2a4.587,4.587,0,0,1-3.574-1.44A5.7,5.7,0,0,1-61.67-5.225V-5.41a5.635,5.635,0,0,1,1.3-3.9,4.534,4.534,0,0,1,3.564-1.455,4.444,4.444,0,0,1,3.179,1.128,3.994,3.994,0,0,1,1.216,3h-2.646a1.939,1.939,0,0,0-.508-1.34,1.693,1.693,0,0,0-1.289-.515,1.7,1.7,0,0,0-1.489.719,4.166,4.166,0,0,0-.5,2.333v.293a4.219,4.219,0,0,0,.5,2.347A1.721,1.721,0,0,0-56.836-2.08Zm6.182.693A1.421,1.421,0,0,1-50.2-2.48a1.611,1.611,0,0,1,1.138-.42,1.624,1.624,0,0,1,1.147.42,1.421,1.421,0,0,1,.454,1.094A1.4,1.4,0,0,1-47.91-.308a1.631,1.631,0,0,1-1.152.415,1.618,1.618,0,0,1-1.143-.415A1.4,1.4,0,0,1-50.654-1.387ZM-31.27-5.811h-5.625V0h-2.93V-14.219h9.258v2.373h-6.328v3.672h5.625ZM-23.262,0a3.134,3.134,0,0,1-.283-.947A3.415,3.415,0,0,1-26.211.2a3.752,3.752,0,0,1-2.573-.9A2.89,2.89,0,0,1-29.8-2.969,2.986,2.986,0,0,1-28.56-5.547a6.144,6.144,0,0,1,3.6-.908h1.3v-.605a1.741,1.741,0,0,0-.376-1.172,1.479,1.479,0,0,0-1.187-.439,1.682,1.682,0,0,0-1.118.342,1.161,1.161,0,0,0-.405.938H-29.57A2.835,2.835,0,0,1-29-9.092a3.744,3.744,0,0,1,1.6-1.226,5.837,5.837,0,0,1,2.324-.444,4.611,4.611,0,0,1,3.1.981A3.433,3.433,0,0,1-20.83-7.021v4.58a5.052,5.052,0,0,0,.42,2.275V0ZM-25.6-1.963a2.431,2.431,0,0,0,1.152-.278,1.828,1.828,0,0,0,.781-.747V-4.8h-1.055q-2.119,0-2.256,1.465l-.01.166a1.13,1.13,0,0,0,.371.869A1.441,1.441,0,0,0-25.6-1.963Zm11.328-.117A1.851,1.851,0,0,0-13-2.51a1.506,1.506,0,0,0,.508-1.143h2.646a3.62,3.62,0,0,1-.586,1.968A3.866,3.866,0,0,1-12.007-.3,4.936,4.936,0,0,1-14.219.2a4.587,4.587,0,0,1-3.574-1.44A5.7,5.7,0,0,1-19.1-5.225V-5.41a5.635,5.635,0,0,1,1.3-3.9,4.534,4.534,0,0,1,3.564-1.455A4.444,4.444,0,0,1-11.06-9.634a3.994,3.994,0,0,1,1.216,3H-12.49A1.939,1.939,0,0,0-13-7.971a1.693,1.693,0,0,0-1.289-.515,1.7,1.7,0,0,0-1.489.719,4.166,4.166,0,0,0-.5,2.333v.293a4.219,4.219,0,0,0,.5,2.347A1.721,1.721,0,0,0-14.268-2.08ZM-5.254,0H-8.086V-10.566h2.832Zm-3-13.3a1.39,1.39,0,0,1,.425-1.045,1.6,1.6,0,0,1,1.157-.41,1.6,1.6,0,0,1,1.152.41,1.382,1.382,0,0,1,.43,1.045,1.386,1.386,0,0,1-.435,1.055,1.6,1.6,0,0,1-1.147.41,1.6,1.6,0,0,1-1.147-.41A1.386,1.386,0,0,1-8.252-13.3ZM.049,0H-2.783V-15H.049Zm5.3,0H2.52V-10.566H5.352Zm-3-13.3a1.39,1.39,0,0,1,.425-1.045,1.6,1.6,0,0,1,1.157-.41,1.6,1.6,0,0,1,1.152.41,1.382,1.382,0,0,1,.43,1.045,1.386,1.386,0,0,1-.435,1.055,1.6,1.6,0,0,1-1.147.41,1.6,1.6,0,0,1-1.147-.41A1.386,1.386,0,0,1,2.354-13.3Zm8.7.137v2.6h1.807V-8.5H11.055v5.273a1.259,1.259,0,0,0,.225.84,1.128,1.128,0,0,0,.859.254,4.5,4.5,0,0,0,.83-.068V-.059A5.81,5.81,0,0,1,11.26.2q-2.969,0-3.027-3V-8.5H6.689v-2.07H8.232v-2.6ZM20.557,0a3.134,3.134,0,0,1-.283-.947A3.415,3.415,0,0,1,17.607.2a3.752,3.752,0,0,1-2.573-.9,2.89,2.89,0,0,1-1.021-2.266,2.986,2.986,0,0,1,1.245-2.578,6.144,6.144,0,0,1,3.6-.908h1.3v-.605a1.741,1.741,0,0,0-.376-1.172,1.479,1.479,0,0,0-1.187-.439,1.682,1.682,0,0,0-1.118.342,1.161,1.161,0,0,0-.405.938H14.248a2.835,2.835,0,0,1,.566-1.7,3.744,3.744,0,0,1,1.6-1.226,5.837,5.837,0,0,1,2.324-.444,4.611,4.611,0,0,1,3.1.981,3.433,3.433,0,0,1,1.147,2.759v4.58a5.052,5.052,0,0,0,.42,2.275V0ZM18.223-1.963a2.431,2.431,0,0,0,1.152-.278,1.828,1.828,0,0,0,.781-.747V-4.8H19.1q-2.119,0-2.256,1.465l-.01.166a1.13,1.13,0,0,0,.371.869A1.441,1.441,0,0,0,18.223-1.963ZM29.551-2.08a1.851,1.851,0,0,0,1.27-.43,1.506,1.506,0,0,0,.508-1.143h2.646a3.62,3.62,0,0,1-.586,1.968A3.866,3.866,0,0,1,31.812-.3,4.936,4.936,0,0,1,29.6.2a4.587,4.587,0,0,1-3.574-1.44,5.7,5.7,0,0,1-1.309-3.979V-5.41a5.635,5.635,0,0,1,1.3-3.9,4.534,4.534,0,0,1,3.564-1.455,4.444,4.444,0,0,1,3.179,1.128,3.994,3.994,0,0,1,1.216,3H31.328a1.939,1.939,0,0,0-.508-1.34,1.693,1.693,0,0,0-1.289-.515,1.7,1.7,0,0,0-1.489.719,4.166,4.166,0,0,0-.5,2.333v.293a4.219,4.219,0,0,0,.5,2.347A1.721,1.721,0,0,0,29.551-2.08ZM38.564,0H35.732V-10.566h2.832Zm-3-13.3a1.39,1.39,0,0,1,.425-1.045,1.6,1.6,0,0,1,1.157-.41,1.6,1.6,0,0,1,1.152.41,1.382,1.382,0,0,1,.43,1.045,1.386,1.386,0,0,1-.435,1.055,1.6,1.6,0,0,1-1.147.41A1.6,1.6,0,0,1,36-12.246,1.386,1.386,0,0,1,35.566-13.3Zm4.883,7.92a6.267,6.267,0,0,1,.605-2.8,4.432,4.432,0,0,1,1.743-1.9,5.086,5.086,0,0,1,2.642-.674,4.812,4.812,0,0,1,3.491,1.309A5.252,5.252,0,0,1,50.439-5.9l.02.723a5.523,5.523,0,0,1-1.357,3.9A4.718,4.718,0,0,1,45.459.2,4.742,4.742,0,0,1,41.812-1.27a5.62,5.62,0,0,1-1.362-3.984Zm2.822.2a3.95,3.95,0,0,0,.566,2.3,1.868,1.868,0,0,0,1.621.8,1.873,1.873,0,0,0,1.6-.787,4.322,4.322,0,0,0,.576-2.518,3.91,3.91,0,0,0-.576-2.289,1.873,1.873,0,0,0-1.621-.812,1.842,1.842,0,0,0-1.6.807A4.395,4.395,0,0,0,43.271-5.181ZM46-15h3.076l-2.705,3.027H44.072Zm8.8,4.434.088,1.221a3.689,3.689,0,0,1,3.037-1.416,3.066,3.066,0,0,1,2.5.986,4.6,4.6,0,0,1,.84,2.949V0H58.438V-6.758a1.831,1.831,0,0,0-.391-1.3,1.749,1.749,0,0,0-1.3-.405,1.942,1.942,0,0,0-1.787,1.016V0H52.139V-10.566Z" transform="translate(998 5464.546)" fill="#040505"/>
    <path id="Trazado_233375" data-name="Trazado 233375" d="M-53.331.205a5.447,5.447,0,0,1-3.973-1.5,5.321,5.321,0,0,1-1.533-3.989v-.287a6.7,6.7,0,0,1,.646-2.989,4.741,4.741,0,0,1,1.83-2.03,5.137,5.137,0,0,1,2.7-.713,4.6,4.6,0,0,1,3.584,1.436,5.833,5.833,0,0,1,1.307,4.071v1.21h-7.065a2.753,2.753,0,0,0,.866,1.743,2.619,2.619,0,0,0,1.83.656,3.2,3.2,0,0,0,2.676-1.241L-49-1.794a4.449,4.449,0,0,1-1.8,1.471A5.921,5.921,0,0,1-53.331.205Zm-.338-9.116a1.852,1.852,0,0,0-1.43.6,3.093,3.093,0,0,0-.7,1.71h4.122V-6.84a2.206,2.206,0,0,0-.533-1.529A1.91,1.91,0,0,0-53.669-8.911Zm6.737,7.455A1.492,1.492,0,0,1-46.455-2.6a1.692,1.692,0,0,1,1.195-.441,1.706,1.706,0,0,1,1.2.441,1.492,1.492,0,0,1,.477,1.148,1.472,1.472,0,0,1-.472,1.133,1.713,1.713,0,0,1-1.21.436,1.7,1.7,0,0,1-1.2-.436A1.472,1.472,0,0,1-46.932-1.456ZM-32.29,0h-3.076V-14.93h3.076Zm5.383-11.095.092,1.282A3.874,3.874,0,0,1-23.625-11.3,3.219,3.219,0,0,1-21-10.264a4.832,4.832,0,0,1,.882,3.1V0h-2.963V-7.1a1.923,1.923,0,0,0-.41-1.369,1.836,1.836,0,0,0-1.364-.426,2.039,2.039,0,0,0-1.876,1.066V0H-29.7V-11.095Zm12.582-2.728v2.728h1.9v2.174h-1.9v5.537a1.322,1.322,0,0,0,.236.882,1.184,1.184,0,0,0,.9.267,4.726,4.726,0,0,0,.872-.072V-.062a6.1,6.1,0,0,1-1.794.267q-3.117,0-3.179-3.148V-8.921h-1.62v-2.174h1.62v-2.728ZM-5.67.205a5.447,5.447,0,0,1-3.973-1.5,5.321,5.321,0,0,1-1.533-3.989v-.287a6.7,6.7,0,0,1,.646-2.989,4.741,4.741,0,0,1,1.83-2.03A5.137,5.137,0,0,1-6-11.3,4.6,4.6,0,0,1-2.415-9.864,5.833,5.833,0,0,1-1.107-5.793v1.21H-8.172A2.753,2.753,0,0,0-7.306-2.84a2.619,2.619,0,0,0,1.83.656A3.2,3.2,0,0,0-2.8-3.425l1.456,1.63a4.449,4.449,0,0,1-1.8,1.471A5.921,5.921,0,0,1-5.67.205Zm-.338-9.116a1.852,1.852,0,0,0-1.43.6,3.093,3.093,0,0,0-.7,1.71H-4.02V-6.84A2.206,2.206,0,0,0-4.553-8.37,1.91,1.91,0,0,0-6.009-8.911ZM.144-5.629A6.5,6.5,0,0,1,1.359-9.741,3.937,3.937,0,0,1,4.635-11.3a3.453,3.453,0,0,1,2.84,1.251L7.6-11.095h2.687V-.369a4.742,4.742,0,0,1-.661,2.533A4.248,4.248,0,0,1,7.762,3.8a6.543,6.543,0,0,1-2.81.564,6.084,6.084,0,0,1-2.379-.487A4.222,4.222,0,0,1,.82,2.625L2.133.82A3.471,3.471,0,0,0,4.819,2.061,2.541,2.541,0,0,0,6.655,1.43,2.365,2.365,0,0,0,7.311-.359V-.954A3.428,3.428,0,0,1,4.614.205,3.927,3.927,0,0,1,1.379-1.359,6.5,6.5,0,0,1,.144-5.506Zm2.963.221a4.049,4.049,0,0,0,.6,2.367,1.925,1.925,0,0,0,1.661.857A2.058,2.058,0,0,0,7.311-3.2V-7.873A2.053,2.053,0,0,0,5.394-8.89a1.937,1.937,0,0,0-1.677.873A4.563,4.563,0,0,0,3.107-5.409ZM18.8-8.316A8.051,8.051,0,0,0,17.729-8.4a2.171,2.171,0,0,0-2.2,1.138V0H12.561V-11.095h2.8l.082,1.323A2.746,2.746,0,0,1,17.914-11.3a3.105,3.105,0,0,1,.923.133ZM23.348,0H20.375V-11.095h2.974ZM20.2-13.966a1.459,1.459,0,0,1,.446-1.1,1.676,1.676,0,0,1,1.215-.431,1.679,1.679,0,0,1,1.21.431,1.451,1.451,0,0,1,.451,1.1,1.455,1.455,0,0,1-.456,1.107,1.684,1.684,0,0,1-1.2.431,1.684,1.684,0,0,1-1.2-.431A1.455,1.455,0,0,1,20.2-13.966Zm5.127,8.336a6.686,6.686,0,0,1,1.164-4.132A3.776,3.776,0,0,1,29.675-11.3a3.4,3.4,0,0,1,2.676,1.21v-5.66h2.974V0H32.648L32.5-1.179A3.487,3.487,0,0,1,29.654.205a3.766,3.766,0,0,1-3.143-1.543A6.9,6.9,0,0,1,25.327-5.629Zm2.963.221a4.38,4.38,0,0,0,.543,2.393,1.77,1.77,0,0,0,1.579.832,1.983,1.983,0,0,0,1.938-1.16V-7.73a1.954,1.954,0,0,0-1.917-1.16Q28.291-8.89,28.291-5.409ZM44.051,0a3.291,3.291,0,0,1-.3-.995,3.586,3.586,0,0,1-2.8,1.2,3.939,3.939,0,0,1-2.7-.943,3.034,3.034,0,0,1-1.072-2.379,3.135,3.135,0,0,1,1.307-2.707,6.451,6.451,0,0,1,3.779-.954H43.63v-.636a1.828,1.828,0,0,0-.395-1.23,1.553,1.553,0,0,0-1.246-.461,1.766,1.766,0,0,0-1.174.359,1.219,1.219,0,0,0-.426.984H37.427a2.977,2.977,0,0,1,.595-1.784A3.931,3.931,0,0,1,39.7-10.833a6.129,6.129,0,0,1,2.44-.467A4.842,4.842,0,0,1,45.4-10.269a3.605,3.605,0,0,1,1.2,2.9v4.809a5.3,5.3,0,0,0,.441,2.389V0ZM41.6-2.061a2.552,2.552,0,0,0,1.21-.292,1.919,1.919,0,0,0,.82-.784V-5.045H42.523q-2.225,0-2.369,1.538l-.01.174a1.186,1.186,0,0,0,.39.913A1.514,1.514,0,0,0,41.6-2.061Zm6.819-3.568a6.686,6.686,0,0,1,1.164-4.132A3.776,3.776,0,0,1,52.767-11.3a3.4,3.4,0,0,1,2.676,1.21v-5.66h2.974V0H55.74L55.6-1.179A3.487,3.487,0,0,1,52.746.205,3.766,3.766,0,0,1,49.6-1.338,6.9,6.9,0,0,1,48.419-5.629Zm2.963.221a4.38,4.38,0,0,0,.543,2.393,1.77,1.77,0,0,0,1.579.832,1.983,1.983,0,0,0,1.938-1.16V-7.73a1.954,1.954,0,0,0-1.917-1.16Q51.382-8.89,51.382-5.409ZM-42.1,20.555a6.654,6.654,0,0,1-1.164,4.107A3.731,3.731,0,0,1-46.4,26.205a3.456,3.456,0,0,1-2.717-1.169v5.229h-2.963V14.905h2.748l.1,1.087a3.483,3.483,0,0,1,2.81-1.292,3.757,3.757,0,0,1,3.189,1.518A6.834,6.834,0,0,1-42.1,20.4Zm-2.963-.215a4.366,4.366,0,0,0-.549-2.389A1.787,1.787,0,0,0-47.2,17.11a1.941,1.941,0,0,0-1.917,1.066v4.542a1.973,1.973,0,0,0,1.938,1.1Q-45.061,23.816-45.061,20.34Zm11.033-2.656a8.051,8.051,0,0,0-1.066-.082,2.171,2.171,0,0,0-2.2,1.138V26h-2.963V14.905h2.8l.082,1.323A2.746,2.746,0,0,1-34.909,14.7a3.105,3.105,0,0,1,.923.133Zm.595,2.666a6.58,6.58,0,0,1,.636-2.943,4.654,4.654,0,0,1,1.83-2,5.34,5.34,0,0,1,2.774-.708,5.052,5.052,0,0,1,3.666,1.374,5.514,5.514,0,0,1,1.584,3.732l.021.759a5.8,5.8,0,0,1-1.425,4.1,4.954,4.954,0,0,1-3.825,1.543A4.979,4.979,0,0,1-32,24.667a5.9,5.9,0,0,1-1.43-4.184Zm2.963.21a4.147,4.147,0,0,0,.595,2.418,1.962,1.962,0,0,0,1.7.837,1.966,1.966,0,0,0,1.682-.827,4.538,4.538,0,0,0,.6-2.644,4.106,4.106,0,0,0-.6-2.4,1.967,1.967,0,0,0-1.7-.852,1.934,1.934,0,0,0-1.682.847A4.614,4.614,0,0,0-30.469,20.56ZM-20.287,26V17.079h-1.651V14.905h1.651v-.943a3.83,3.83,0,0,1,1.072-2.9,4.15,4.15,0,0,1,3-1.031,6.928,6.928,0,0,1,1.507.205l-.031,2.3a3.778,3.778,0,0,0-.9-.092q-1.671,0-1.671,1.569v.892h2.2v2.174h-2.2V26Zm11.577.205a5.447,5.447,0,0,1-3.973-1.5,5.321,5.321,0,0,1-1.533-3.989v-.287a6.7,6.7,0,0,1,.646-2.989,4.741,4.741,0,0,1,1.83-2.03,5.137,5.137,0,0,1,2.7-.713,4.6,4.6,0,0,1,3.584,1.436,5.833,5.833,0,0,1,1.307,4.071v1.21h-7.065a2.753,2.753,0,0,0,.866,1.743,2.619,2.619,0,0,0,1.83.656A3.2,3.2,0,0,0-5.84,22.575l1.456,1.63a4.449,4.449,0,0,1-1.8,1.471A5.921,5.921,0,0,1-8.711,26.205Zm-.338-9.116a1.852,1.852,0,0,0-1.43.6,3.093,3.093,0,0,0-.7,1.71H-7.06V19.16a2.206,2.206,0,0,0-.533-1.529A1.91,1.91,0,0,0-9.049,17.089ZM3.543,22.934A.955.955,0,0,0,3,22.078a6.115,6.115,0,0,0-1.728-.559q-3.958-.831-3.958-3.363A3.049,3.049,0,0,1-1.456,15.69a4.943,4.943,0,0,1,3.2-.99,5.32,5.32,0,0,1,3.379.995,3.135,3.135,0,0,1,1.266,2.584H3.43a1.434,1.434,0,0,0-.41-1.051,1.736,1.736,0,0,0-1.282-.415,1.774,1.774,0,0,0-1.159.338,1.068,1.068,0,0,0-.41.861.913.913,0,0,0,.467.795,4.8,4.8,0,0,0,1.574.523,12.856,12.856,0,0,1,1.866.5,3.066,3.066,0,0,1,2.348,2.984,2.894,2.894,0,0,1-1.3,2.456,5.618,5.618,0,0,1-3.363.938,5.867,5.867,0,0,1-2.476-.5,4.155,4.155,0,0,1-1.7-1.364,3.169,3.169,0,0,1-.615-1.871H-.22a1.547,1.547,0,0,0,.584,1.21,2.318,2.318,0,0,0,1.456.42,2.146,2.146,0,0,0,1.287-.323A1,1,0,0,0,3.543,22.934ZM11.459,26H8.485V14.905h2.974ZM8.311,12.034a1.459,1.459,0,0,1,.446-1.1,1.676,1.676,0,0,1,1.215-.431,1.679,1.679,0,0,1,1.21.431,1.566,1.566,0,0,1-.005,2.2,1.684,1.684,0,0,1-1.2.431,1.684,1.684,0,0,1-1.2-.431A1.455,1.455,0,0,1,8.311,12.034Zm5.127,8.316a6.58,6.58,0,0,1,.636-2.943,4.654,4.654,0,0,1,1.83-2,5.34,5.34,0,0,1,2.774-.708,5.052,5.052,0,0,1,3.666,1.374,5.514,5.514,0,0,1,1.584,3.732l.021.759a5.8,5.8,0,0,1-1.425,4.1A4.954,4.954,0,0,1,18.7,26.205a4.979,4.979,0,0,1-3.83-1.538,5.9,5.9,0,0,1-1.43-4.184Zm2.963.21A4.147,4.147,0,0,0,17,22.979a2.137,2.137,0,0,0,3.384.01,4.538,4.538,0,0,0,.6-2.644,4.106,4.106,0,0,0-.6-2.4,1.967,1.967,0,0,0-1.7-.852A1.934,1.934,0,0,0,17,17.937,4.614,4.614,0,0,0,16.4,20.56Zm12.1-5.655.092,1.282A3.874,3.874,0,0,1,31.782,14.7a3.219,3.219,0,0,1,2.625,1.036,4.832,4.832,0,0,1,.882,3.1V26H32.325V18.9a1.923,1.923,0,0,0-.41-1.369,1.836,1.836,0,0,0-1.364-.426,2.039,2.039,0,0,0-1.876,1.066V26H25.712V14.905ZM43.964,26a3.291,3.291,0,0,1-.3-.995,3.586,3.586,0,0,1-2.8,1.2,3.939,3.939,0,0,1-2.7-.943,3.034,3.034,0,0,1-1.072-2.379A3.135,3.135,0,0,1,38.4,20.176a6.451,6.451,0,0,1,3.779-.954h1.364v-.636a1.828,1.828,0,0,0-.395-1.23,1.553,1.553,0,0,0-1.246-.461,1.766,1.766,0,0,0-1.174.359,1.219,1.219,0,0,0-.426.984H37.34a2.977,2.977,0,0,1,.595-1.784,3.931,3.931,0,0,1,1.682-1.287,6.129,6.129,0,0,1,2.44-.467,4.842,4.842,0,0,1,3.256,1.031,3.605,3.605,0,0,1,1.2,2.9v4.809a5.3,5.3,0,0,0,.441,2.389V26Zm-2.451-2.061a2.552,2.552,0,0,0,1.21-.292,1.919,1.919,0,0,0,.82-.784V20.955H42.436q-2.225,0-2.369,1.538l-.01.174a1.186,1.186,0,0,0,.39.913A1.514,1.514,0,0,0,41.513,23.939ZM51.921,26H48.947V10.25h2.974Z" transform="translate(601.999 5452.367)" fill="#040505"/>
    <path id="Trazado_231791" data-name="Trazado 231791" d="M120.3,422.333V325.679l68.342-68.343H285.3l68.34,68.352v96.646l-68.346,68.343H188.643Z" transform="translate(374.699 4877.831)" fill="#7ed0eb" style="mix-blend-mode: multiply;isolation: isolate"/>
    <path id="Trazado_233376" data-name="Trazado 233376" d="M-63.594,0V-8.5h-1.572v-2.07h1.572v-.9a3.648,3.648,0,0,1,1.021-2.759,3.952,3.952,0,0,1,2.856-.981,6.6,6.6,0,0,1,1.436.2l-.029,2.188a3.6,3.6,0,0,0-.859-.088q-1.592,0-1.592,1.494v.85h2.1V-8.5h-2.1V0Zm6.543-1.387A1.421,1.421,0,0,1-56.6-2.48a1.611,1.611,0,0,1,1.138-.42,1.624,1.624,0,0,1,1.147.42,1.421,1.421,0,0,1,.454,1.094,1.4,1.4,0,0,1-.449,1.079,1.631,1.631,0,0,1-1.152.415A1.618,1.618,0,0,1-56.6-.308,1.4,1.4,0,0,1-57.051-1.387Zm22.51-5.4a8.583,8.583,0,0,1-.742,3.682A5.589,5.589,0,0,1-37.407-.664,5.875,5.875,0,0,1-40.576.2a5.915,5.915,0,0,1-3.154-.85,5.644,5.644,0,0,1-2.148-2.427,8.338,8.338,0,0,1-.771-3.628v-.7a8.538,8.538,0,0,1,.757-3.7,5.635,5.635,0,0,1,2.139-2.451,5.883,5.883,0,0,1,3.159-.854,5.883,5.883,0,0,1,3.159.854A5.635,5.635,0,0,1-35.3-11.108a8.514,8.514,0,0,1,.757,3.687Zm-2.969-.645a5.984,5.984,0,0,0-.8-3.4A2.61,2.61,0,0,0-40.6-11.992a2.611,2.611,0,0,0-2.275,1.147,5.915,5.915,0,0,0-.811,3.364v.693a6.058,6.058,0,0,0,.8,3.379,2.6,2.6,0,0,0,2.3,1.2,2.579,2.579,0,0,0,2.266-1.157,6.023,6.023,0,0,0,.8-3.374Zm14.424,2.246a6.337,6.337,0,0,1-1.108,3.911A3.554,3.554,0,0,1-27.187.2,3.292,3.292,0,0,1-29.775-.918v4.98H-32.6V-10.566h2.617l.1,1.035a3.317,3.317,0,0,1,2.676-1.23A3.578,3.578,0,0,1-24.17-9.316a6.509,6.509,0,0,1,1.084,3.984Zm-2.822-.205a4.159,4.159,0,0,0-.522-2.275,1.7,1.7,0,0,0-1.519-.8,1.848,1.848,0,0,0-1.826,1.016v4.326A1.879,1.879,0,0,0-27.93-2.08Q-25.908-2.08-25.908-5.391ZM-16.475.2A5.187,5.187,0,0,1-20.259-1.23a5.068,5.068,0,0,1-1.46-3.8V-5.3A6.383,6.383,0,0,1-21.1-8.149a4.515,4.515,0,0,1,1.743-1.934,4.893,4.893,0,0,1,2.573-.679,4.385,4.385,0,0,1,3.413,1.367,5.555,5.555,0,0,1,1.245,3.877v1.152h-6.729a2.622,2.622,0,0,0,.825,1.66,2.5,2.5,0,0,0,1.743.625A3.046,3.046,0,0,0-13.74-3.262l1.387,1.553a4.237,4.237,0,0,1-1.719,1.4A5.639,5.639,0,0,1-16.475.2ZM-16.8-8.486a1.764,1.764,0,0,0-1.362.569,2.946,2.946,0,0,0-.669,1.628H-14.9v-.226a2.1,2.1,0,0,0-.508-1.457A1.819,1.819,0,0,0-16.8-8.486ZM-4.59-7.92A7.667,7.667,0,0,0-5.605-8a2.067,2.067,0,0,0-2.1,1.084V0h-2.822V-10.566h2.666l.078,1.26A2.615,2.615,0,0,1-5.43-10.762a2.957,2.957,0,0,1,.879.127ZM2.6,0a3.134,3.134,0,0,1-.283-.947A3.415,3.415,0,0,1-.352.2,3.752,3.752,0,0,1-2.925-.7,2.89,2.89,0,0,1-3.945-2.969,2.986,2.986,0,0,1-2.7-5.547,6.144,6.144,0,0,1,.9-6.455H2.2v-.605a1.741,1.741,0,0,0-.376-1.172A1.479,1.479,0,0,0,.635-8.672,1.682,1.682,0,0,0-.483-8.33a1.161,1.161,0,0,0-.405.938H-3.711a2.835,2.835,0,0,1,.566-1.7,3.744,3.744,0,0,1,1.6-1.226,5.837,5.837,0,0,1,2.324-.444,4.611,4.611,0,0,1,3.1.981A3.433,3.433,0,0,1,5.029-7.021v4.58a5.052,5.052,0,0,0,.42,2.275V0ZM.264-1.963a2.431,2.431,0,0,0,1.152-.278A1.828,1.828,0,0,0,2.2-2.988V-4.8H1.143Q-.977-4.8-1.113-3.34l-.01.166A1.13,1.13,0,0,0-.752-2.3,1.441,1.441,0,0,0,.264-1.963ZM11.592-2.08a1.851,1.851,0,0,0,1.27-.43,1.506,1.506,0,0,0,.508-1.143h2.646a3.62,3.62,0,0,1-.586,1.968A3.866,3.866,0,0,1,13.853-.3,4.936,4.936,0,0,1,11.641.2a4.587,4.587,0,0,1-3.574-1.44A5.7,5.7,0,0,1,6.758-5.225V-5.41a5.635,5.635,0,0,1,1.3-3.9,4.534,4.534,0,0,1,3.564-1.455A4.444,4.444,0,0,1,14.8-9.634a3.994,3.994,0,0,1,1.216,3H13.369a1.939,1.939,0,0,0-.508-1.34,1.693,1.693,0,0,0-1.289-.515,1.7,1.7,0,0,0-1.489.719,4.166,4.166,0,0,0-.5,2.333v.293a4.219,4.219,0,0,0,.5,2.347A1.721,1.721,0,0,0,11.592-2.08ZM20.605,0H17.773V-10.566h2.832Zm-3-13.3a1.39,1.39,0,0,1,.425-1.045,1.6,1.6,0,0,1,1.157-.41,1.6,1.6,0,0,1,1.152.41,1.382,1.382,0,0,1,.43,1.045,1.386,1.386,0,0,1-.435,1.055,1.6,1.6,0,0,1-1.147.41,1.6,1.6,0,0,1-1.147-.41A1.386,1.386,0,0,1,17.607-13.3Zm4.883,7.92a6.266,6.266,0,0,1,.605-2.8,4.432,4.432,0,0,1,1.743-1.9,5.086,5.086,0,0,1,2.642-.674,4.812,4.812,0,0,1,3.491,1.309A5.252,5.252,0,0,1,32.48-5.9l.02.723a5.523,5.523,0,0,1-1.357,3.9A4.718,4.718,0,0,1,27.5.2,4.742,4.742,0,0,1,23.853-1.27,5.62,5.62,0,0,1,22.49-5.254Zm2.822.2a3.95,3.95,0,0,0,.566,2.3,1.868,1.868,0,0,0,1.621.8,1.873,1.873,0,0,0,1.6-.787,4.322,4.322,0,0,0,.576-2.518A3.91,3.91,0,0,0,29.1-7.675a1.873,1.873,0,0,0-1.621-.812,1.842,1.842,0,0,0-1.6.807A4.395,4.395,0,0,0,25.313-5.181Zm11.523-5.386.088,1.221a3.689,3.689,0,0,1,3.037-1.416,3.066,3.066,0,0,1,2.5.986,4.6,4.6,0,0,1,.84,2.949V0H40.479V-6.758a1.831,1.831,0,0,0-.391-1.3,1.749,1.749,0,0,0-1.3-.405A1.942,1.942,0,0,0,37-7.451V0H34.18V-10.566ZM50.3.2A5.187,5.187,0,0,1,46.519-1.23a5.068,5.068,0,0,1-1.46-3.8V-5.3a6.383,6.383,0,0,1,.615-2.847,4.515,4.515,0,0,1,1.743-1.934,4.893,4.893,0,0,1,2.573-.679A4.385,4.385,0,0,1,53.4-9.395a5.555,5.555,0,0,1,1.245,3.877v1.152H47.92a2.622,2.622,0,0,0,.825,1.66,2.5,2.5,0,0,0,1.743.625,3.046,3.046,0,0,0,2.549-1.182l1.387,1.553a4.237,4.237,0,0,1-1.719,1.4A5.639,5.639,0,0,1,50.3.2ZM49.98-8.486a1.764,1.764,0,0,0-1.362.569,2.946,2.946,0,0,0-.669,1.628h3.926v-.226a2.1,2.1,0,0,0-.508-1.457A1.819,1.819,0,0,0,49.98-8.486ZM61.973-2.92a.909.909,0,0,0-.513-.815,5.824,5.824,0,0,0-1.646-.532q-3.77-.791-3.77-3.2a2.9,2.9,0,0,1,1.167-2.349,4.708,4.708,0,0,1,3.052-.942,5.067,5.067,0,0,1,3.218.947,2.985,2.985,0,0,1,1.206,2.461H61.865a1.366,1.366,0,0,0-.391-1,1.653,1.653,0,0,0-1.221-.4,1.689,1.689,0,0,0-1.1.322,1.017,1.017,0,0,0-.391.82.87.87,0,0,0,.444.757,4.571,4.571,0,0,0,1.5.5,12.244,12.244,0,0,1,1.777.474,2.92,2.92,0,0,1,2.236,2.842A2.756,2.756,0,0,1,63.477-.7a5.35,5.35,0,0,1-3.2.894,5.588,5.588,0,0,1-2.358-.474,3.957,3.957,0,0,1-1.616-1.3,3.018,3.018,0,0,1-.586-1.782h2.676a1.473,1.473,0,0,0,.557,1.152,2.208,2.208,0,0,0,1.387.4,2.044,2.044,0,0,0,1.226-.308A.957.957,0,0,0,61.973-2.92Z" transform="translate(612 5259.837)" fill="#040505"/>
    <path id="Trazado_233377" data-name="Trazado 233377" d="M-34.5,0a3.134,3.134,0,0,1-.283-.947A3.415,3.415,0,0,1-37.451.2a3.752,3.752,0,0,1-2.573-.9,2.89,2.89,0,0,1-1.021-2.266A2.986,2.986,0,0,1-39.8-5.547a6.144,6.144,0,0,1,3.6-.908h1.3v-.605a1.741,1.741,0,0,0-.376-1.172,1.479,1.479,0,0,0-1.187-.439,1.682,1.682,0,0,0-1.118.342,1.161,1.161,0,0,0-.405.938h-2.822a2.835,2.835,0,0,1,.566-1.7,3.744,3.744,0,0,1,1.6-1.226,5.837,5.837,0,0,1,2.324-.444,4.611,4.611,0,0,1,3.1.981A3.433,3.433,0,0,1-32.07-7.021v4.58a5.052,5.052,0,0,0,.42,2.275V0Zm-2.334-1.963a2.431,2.431,0,0,0,1.152-.278,1.828,1.828,0,0,0,.781-.747V-4.8h-1.055q-2.119,0-2.256,1.465l-.01.166a1.13,1.13,0,0,0,.371.869A1.441,1.441,0,0,0-36.836-1.963Zm7.08.576A1.421,1.421,0,0,1-29.3-2.48a1.611,1.611,0,0,1,1.138-.42,1.624,1.624,0,0,1,1.147.42,1.421,1.421,0,0,1,.454,1.094,1.4,1.4,0,0,1-.449,1.079,1.631,1.631,0,0,1-1.152.415,1.618,1.618,0,0,1-1.143-.415A1.4,1.4,0,0,1-29.756-1.387ZM-18.926,0V-14.219h4.375a6.644,6.644,0,0,1,3.354.845,5.89,5.89,0,0,1,2.31,2.4,7.41,7.41,0,0,1,.83,3.54v.654a7.431,7.431,0,0,1-.815,3.525,5.84,5.84,0,0,1-2.3,2.393A6.694,6.694,0,0,1-14.521,0ZM-16-11.846v9.492h1.416a3.181,3.181,0,0,0,2.627-1.123,5.075,5.075,0,0,0,.928-3.213v-.752a5.156,5.156,0,0,0-.9-3.286,3.171,3.171,0,0,0-2.627-1.118ZM-3.135,0H-5.967V-10.566h2.832Zm-3-13.3a1.39,1.39,0,0,1,.425-1.045,1.6,1.6,0,0,1,1.157-.41,1.6,1.6,0,0,1,1.152.41,1.382,1.382,0,0,1,.43,1.045A1.386,1.386,0,0,1-3.4-12.246a1.6,1.6,0,0,1-1.147.41,1.6,1.6,0,0,1-1.147-.41A1.386,1.386,0,0,1-6.133-13.3ZM4.912-2.92A.909.909,0,0,0,4.4-3.735a5.824,5.824,0,0,0-1.646-.532q-3.77-.791-3.77-3.2A2.9,2.9,0,0,1,.151-9.819,4.708,4.708,0,0,1,3.2-10.762a5.067,5.067,0,0,1,3.218.947A2.985,2.985,0,0,1,7.627-7.354H4.8a1.366,1.366,0,0,0-.391-1,1.653,1.653,0,0,0-1.221-.4,1.689,1.689,0,0,0-1.1.322,1.017,1.017,0,0,0-.391.82.87.87,0,0,0,.444.757,4.571,4.571,0,0,0,1.5.5,12.244,12.244,0,0,1,1.777.474A2.92,2.92,0,0,1,7.656-3.037,2.756,2.756,0,0,1,6.416-.7,5.35,5.35,0,0,1,3.213.2,5.588,5.588,0,0,1,.854-.278a3.957,3.957,0,0,1-1.616-1.3,3.018,3.018,0,0,1-.586-1.782H1.328a1.473,1.473,0,0,0,.557,1.152,2.208,2.208,0,0,0,1.387.4A2.044,2.044,0,0,0,4.5-2.114.957.957,0,0,0,4.912-2.92ZM14.336.2A5.187,5.187,0,0,1,10.552-1.23a5.068,5.068,0,0,1-1.46-3.8V-5.3a6.383,6.383,0,0,1,.615-2.847,4.515,4.515,0,0,1,1.743-1.934,4.893,4.893,0,0,1,2.573-.679,4.385,4.385,0,0,1,3.413,1.367,5.555,5.555,0,0,1,1.245,3.877v1.152H11.953a2.622,2.622,0,0,0,.825,1.66,2.5,2.5,0,0,0,1.743.625A3.046,3.046,0,0,0,17.07-3.262l1.387,1.553a4.237,4.237,0,0,1-1.719,1.4A5.639,5.639,0,0,1,14.336.2Zm-.322-8.682a1.764,1.764,0,0,0-1.362.569,2.946,2.946,0,0,0-.669,1.628h3.926v-.226A2.1,2.1,0,0,0,15.4-7.971,1.819,1.819,0,0,0,14.014-8.486Zm8.867-2.08.088,1.221a3.689,3.689,0,0,1,3.037-1.416,3.066,3.066,0,0,1,2.5.986,4.6,4.6,0,0,1,.84,2.949V0H26.523V-6.758a1.831,1.831,0,0,0-.391-1.3,1.749,1.749,0,0,0-1.3-.405,1.942,1.942,0,0,0-1.787,1.016V0H20.225V-10.566Zm5.605-4.307a2.733,2.733,0,0,1-.645,1.851,2,2,0,0,1-1.572.747,2.385,2.385,0,0,1-.659-.083,4.423,4.423,0,0,1-.8-.356,4.293,4.293,0,0,0-.732-.337,1.79,1.79,0,0,0-.488-.063.783.783,0,0,0-.581.244.949.949,0,0,0-.239.693l-1.641-.1a2.775,2.775,0,0,1,.64-1.846,1.973,1.973,0,0,1,1.567-.762,2.018,2.018,0,0,1,.552.073,6.076,6.076,0,0,1,.845.356,5.49,5.49,0,0,0,.811.342,1.85,1.85,0,0,0,.469.059.824.824,0,0,0,.591-.239.91.91,0,0,0,.249-.688Zm2.559,9.492a6.266,6.266,0,0,1,.605-2.8,4.432,4.432,0,0,1,1.743-1.9,5.086,5.086,0,0,1,2.642-.674,4.812,4.812,0,0,1,3.491,1.309A5.252,5.252,0,0,1,41.035-5.9l.02.723a5.523,5.523,0,0,1-1.357,3.9A4.718,4.718,0,0,1,36.055.2,4.742,4.742,0,0,1,32.407-1.27a5.62,5.62,0,0,1-1.362-3.984Zm2.822.2a3.95,3.95,0,0,0,.566,2.3,1.868,1.868,0,0,0,1.621.8,1.873,1.873,0,0,0,1.6-.787,4.322,4.322,0,0,0,.576-2.518,3.91,3.91,0,0,0-.576-2.289,1.873,1.873,0,0,0-1.621-.812,1.842,1.842,0,0,0-1.6.807A4.395,4.395,0,0,0,33.867-5.181ZM-62.065,19.639A6.368,6.368,0,0,1-60.957,15.7a3.6,3.6,0,0,1,3.032-1.465,3.236,3.236,0,0,1,2.549,1.152V10h2.832V25h-2.549l-.137-1.123A3.321,3.321,0,0,1-57.944,25.2a3.587,3.587,0,0,1-2.993-1.47A6.573,6.573,0,0,1-62.065,19.639Zm2.822.21a4.171,4.171,0,0,0,.518,2.279,1.686,1.686,0,0,0,1.5.792,1.888,1.888,0,0,0,1.846-1.105V17.638A1.861,1.861,0,0,0-57.2,16.533Q-59.243,16.533-59.243,19.849Zm13.75,5.347a5.187,5.187,0,0,1-3.784-1.426,5.068,5.068,0,0,1-1.46-3.8V19.7a6.383,6.383,0,0,1,.615-2.847,4.515,4.515,0,0,1,1.743-1.934,4.893,4.893,0,0,1,2.573-.679,4.385,4.385,0,0,1,3.413,1.367,5.555,5.555,0,0,1,1.245,3.877v1.152h-6.729a2.622,2.622,0,0,0,.825,1.66,2.5,2.5,0,0,0,1.743.625,3.046,3.046,0,0,0,2.549-1.182l1.387,1.553a4.237,4.237,0,0,1-1.719,1.4A5.639,5.639,0,0,1-45.493,25.2Zm-.322-8.682a1.764,1.764,0,0,0-1.362.569,2.946,2.946,0,0,0-.669,1.628h3.926v-.226a2.1,2.1,0,0,0-.508-1.457A1.819,1.819,0,0,0-45.815,16.514Zm16.973,5.566a.909.909,0,0,0-.513-.815A5.824,5.824,0,0,0-31,20.732q-3.77-.791-3.77-3.2A2.9,2.9,0,0,1-33.6,15.181a4.708,4.708,0,0,1,3.052-.942,5.067,5.067,0,0,1,3.218.947,2.985,2.985,0,0,1,1.206,2.461H-28.95a1.366,1.366,0,0,0-.391-1,1.653,1.653,0,0,0-1.221-.4,1.689,1.689,0,0,0-1.1.322,1.017,1.017,0,0,0-.391.82.87.87,0,0,0,.444.757,4.571,4.571,0,0,0,1.5.5,12.244,12.244,0,0,1,1.777.474A2.92,2.92,0,0,1-26.1,21.963a2.756,2.756,0,0,1-1.24,2.339,5.35,5.35,0,0,1-3.2.894,5.588,5.588,0,0,1-2.358-.474,3.957,3.957,0,0,1-1.616-1.3,3.018,3.018,0,0,1-.586-1.782h2.676a1.473,1.473,0,0,0,.557,1.152,2.208,2.208,0,0,0,1.387.4,2.044,2.044,0,0,0,1.226-.308A.957.957,0,0,0-28.843,22.08ZM-21.3,25h-2.832V14.434H-21.3Zm-3-13.3a1.39,1.39,0,0,1,.425-1.045,1.6,1.6,0,0,1,1.157-.41,1.6,1.6,0,0,1,1.152.41,1.382,1.382,0,0,1,.43,1.045,1.386,1.386,0,0,1-.435,1.055,1.6,1.6,0,0,1-1.147.41,1.6,1.6,0,0,1-1.147-.41A1.386,1.386,0,0,1-24.3,11.7Zm7.969,2.734.088,1.182a3.713,3.713,0,0,1,3.037-1.377,2.818,2.818,0,0,1,2.8,1.611,3.628,3.628,0,0,1,3.174-1.611,3.152,3.152,0,0,1,2.559,1,4.6,4.6,0,0,1,.84,3.013V25H-6.665V18.262a2.012,2.012,0,0,0-.352-1.313,1.558,1.558,0,0,0-1.24-.415,1.761,1.761,0,0,0-1.758,1.211L-10,25h-2.822V18.271a1.988,1.988,0,0,0-.361-1.328,1.573,1.573,0,0,0-1.23-.41,1.829,1.829,0,0,0-1.738,1V25h-2.822V14.434Zm21,9.492A3.539,3.539,0,0,1,1.772,25.2,3.338,3.338,0,0,1-.82,24.219a4.169,4.169,0,0,1-.913-2.861V14.434H1.089v6.834q0,1.652,1.5,1.652a2.038,2.038,0,0,0,1.973-1V14.434H7.4V25H4.741ZM12.5,25H9.673V10H12.5Zm8.447,0a3.134,3.134,0,0,1-.283-.947A3.415,3.415,0,0,1,18,25.2a3.752,3.752,0,0,1-2.573-.9,2.89,2.89,0,0,1-1.021-2.266,2.986,2.986,0,0,1,1.245-2.578,6.144,6.144,0,0,1,3.6-.908h1.3v-.605a1.741,1.741,0,0,0-.376-1.172,1.479,1.479,0,0,0-1.187-.439,1.682,1.682,0,0,0-1.118.342,1.161,1.161,0,0,0-.405.938H14.644a2.835,2.835,0,0,1,.566-1.7,3.744,3.744,0,0,1,1.6-1.226,5.837,5.837,0,0,1,2.324-.444,4.611,4.611,0,0,1,3.1.981,3.433,3.433,0,0,1,1.147,2.759v4.58a5.052,5.052,0,0,0,.42,2.275V25Zm-2.334-1.963a2.431,2.431,0,0,0,1.152-.278,1.828,1.828,0,0,0,.781-.747V20.2H19.5q-2.119,0-2.256,1.465l-.01.166a1.13,1.13,0,0,0,.371.869A1.441,1.441,0,0,0,18.618,23.037Zm11.328-.117a1.851,1.851,0,0,0,1.27-.43,1.506,1.506,0,0,0,.508-1.143H34.37a3.62,3.62,0,0,1-.586,1.968A3.866,3.866,0,0,1,32.207,24.7,4.936,4.936,0,0,1,30,25.2a4.587,4.587,0,0,1-3.574-1.44,5.7,5.7,0,0,1-1.309-3.979V19.59a5.635,5.635,0,0,1,1.3-3.9,4.534,4.534,0,0,1,3.564-1.455,4.444,4.444,0,0,1,3.179,1.128,3.994,3.994,0,0,1,1.216,3H31.724a1.939,1.939,0,0,0-.508-1.34,1.887,1.887,0,0,0-2.778.2,4.166,4.166,0,0,0-.5,2.333v.293a4.219,4.219,0,0,0,.5,2.347A1.721,1.721,0,0,0,29.946,22.92ZM38.96,25H36.128V14.434H38.96Zm-3-13.3a1.39,1.39,0,0,1,.425-1.045,1.831,1.831,0,0,1,2.31,0,1.491,1.491,0,0,1,0,2.1,1.81,1.81,0,0,1-2.295,0A1.386,1.386,0,0,1,35.962,11.7Zm4.883,7.92a6.267,6.267,0,0,1,.605-2.8,4.432,4.432,0,0,1,1.743-1.9,5.086,5.086,0,0,1,2.642-.674,4.812,4.812,0,0,1,3.491,1.309A5.252,5.252,0,0,1,50.835,19.1l.02.723a5.523,5.523,0,0,1-1.357,3.9,5.261,5.261,0,0,1-7.29,0,5.62,5.62,0,0,1-1.362-3.984Zm2.822.2a3.95,3.95,0,0,0,.566,2.3,2.035,2.035,0,0,0,3.223.01,4.322,4.322,0,0,0,.576-2.518,3.91,3.91,0,0,0-.576-2.289,1.873,1.873,0,0,0-1.621-.812,1.842,1.842,0,0,0-1.6.807A4.395,4.395,0,0,0,43.667,19.819ZM46.392,10h3.076l-2.705,3.027H44.468Zm8.8,4.434.088,1.221a3.689,3.689,0,0,1,3.037-1.416,3.066,3.066,0,0,1,2.5.986,4.6,4.6,0,0,1,.84,2.949V25H58.833V18.242a1.831,1.831,0,0,0-.391-1.3,1.749,1.749,0,0,0-1.3-.405,1.942,1.942,0,0,0-1.787,1.016V25H52.534V14.434Z" transform="translate(799.999 5135.5)" fill="#040505"/>
    <path id="Trazado_233378" data-name="Trazado 233378" d="M-56.007-5.093a6.049,6.049,0,0,1,1.053-3.739,3.417,3.417,0,0,1,2.881-1.392,3.074,3.074,0,0,1,2.421,1.095V-14.25h2.69V0h-2.421l-.13-1.067A3.155,3.155,0,0,1-52.092.186a3.407,3.407,0,0,1-2.844-1.4A6.244,6.244,0,0,1-56.007-5.093Zm2.681.2a3.963,3.963,0,0,0,.492,2.165,1.6,1.6,0,0,0,1.429.753,1.794,1.794,0,0,0,1.753-1.05V-6.994a1.768,1.768,0,0,0-1.735-1.05Q-53.326-8.043-53.326-4.894Zm8.582,3.576a1.35,1.35,0,0,1,.431-1.039,1.531,1.531,0,0,1,1.081-.4,1.543,1.543,0,0,1,1.09.4,1.35,1.35,0,0,1,.431,1.039,1.331,1.331,0,0,1-.427,1.025A1.55,1.55,0,0,1-43.232.1a1.537,1.537,0,0,1-1.085-.394A1.331,1.331,0,0,1-44.745-1.317Zm18.416-4.537h-5.344v3.618H-25.4V0h-9.055V-13.508h9.036v2.254h-6.253v3.219h5.344Zm5.9,2.579,1.865-6.763h2.8L-19.148,0h-2.561L-25.1-10.038h2.8ZM-8.906,0a2.977,2.977,0,0,1-.269-.9A3.244,3.244,0,0,1-11.708.186a3.564,3.564,0,0,1-2.445-.854,2.745,2.745,0,0,1-.969-2.152A2.837,2.837,0,0,1-13.939-5.27a5.837,5.837,0,0,1,3.419-.863h1.234v-.575a1.654,1.654,0,0,0-.357-1.113,1.405,1.405,0,0,0-1.127-.417,1.6,1.6,0,0,0-1.062.325,1.1,1.1,0,0,0-.385.891H-14.9a2.693,2.693,0,0,1,.538-1.614A3.557,3.557,0,0,1-12.84-9.8a5.545,5.545,0,0,1,2.208-.422,4.381,4.381,0,0,1,2.946.932A3.262,3.262,0,0,1-6.6-6.67v4.351A4.8,4.8,0,0,0-6.2-.158V0Zm-2.217-1.865a2.309,2.309,0,0,0,1.095-.264,1.737,1.737,0,0,0,.742-.71V-4.564h-1q-2.013,0-2.143,1.392l-.009.158a1.073,1.073,0,0,0,.353.826A1.369,1.369,0,0,0-11.124-1.865ZM-1.707,0H-4.4V-14.25h2.69Zm8.22-1.021A3.362,3.362,0,0,1,3.767.186,3.171,3.171,0,0,1,1.3-.742,3.96,3.96,0,0,1,.436-3.46v-6.578H3.117v6.492q0,1.57,1.429,1.57A1.936,1.936,0,0,0,6.42-2.924v-7.115H9.11V0H6.587ZM16.95,0a2.977,2.977,0,0,1-.269-.9A3.244,3.244,0,0,1,14.148.186,3.564,3.564,0,0,1,11.7-.668a2.745,2.745,0,0,1-.969-2.152A2.837,2.837,0,0,1,11.917-5.27a5.837,5.837,0,0,1,3.419-.863h1.234v-.575a1.654,1.654,0,0,0-.357-1.113,1.405,1.405,0,0,0-1.127-.417,1.6,1.6,0,0,0-1.062.325,1.1,1.1,0,0,0-.385.891H10.957a2.693,2.693,0,0,1,.538-1.614A3.557,3.557,0,0,1,13.016-9.8a5.545,5.545,0,0,1,2.208-.422,4.381,4.381,0,0,1,2.946.932A3.262,3.262,0,0,1,19.26-6.67v4.351a4.8,4.8,0,0,0,.4,2.162V0ZM14.732-1.865a2.309,2.309,0,0,0,1.095-.264,1.737,1.737,0,0,0,.742-.71V-4.564h-1q-2.013,0-2.143,1.392l-.009.158a1.073,1.073,0,0,0,.353.826A1.369,1.369,0,0,0,14.732-1.865Zm10.762-.111A1.759,1.759,0,0,0,26.7-2.384a1.43,1.43,0,0,0,.482-1.085H29.7A3.439,3.439,0,0,1,29.14-1.6a3.673,3.673,0,0,1-1.5,1.317,4.689,4.689,0,0,1-2.1.469,4.358,4.358,0,0,1-3.4-1.368A5.415,5.415,0,0,1,20.9-4.963V-5.14a5.353,5.353,0,0,1,1.234-3.7,4.307,4.307,0,0,1,3.386-1.382,4.222,4.222,0,0,1,3.02,1.072A3.794,3.794,0,0,1,29.7-6.3H27.183A1.842,1.842,0,0,0,26.7-7.572a1.608,1.608,0,0,0-1.225-.49,1.615,1.615,0,0,0-1.415.683,3.958,3.958,0,0,0-.478,2.216v.279a4.008,4.008,0,0,0,.473,2.23A1.635,1.635,0,0,0,25.494-1.976ZM34.057,0h-2.69V-10.038h2.69ZM31.209-12.636a1.32,1.32,0,0,1,.4-.993,1.516,1.516,0,0,1,1.1-.39,1.52,1.52,0,0,1,1.095.39,1.313,1.313,0,0,1,.408.993,1.316,1.316,0,0,1-.413,1,1.523,1.523,0,0,1-1.09.39,1.523,1.523,0,0,1-1.09-.39A1.316,1.316,0,0,1,31.209-12.636Zm4.639,7.524a5.953,5.953,0,0,1,.575-2.663,4.211,4.211,0,0,1,1.656-1.809,4.831,4.831,0,0,1,2.51-.64A4.571,4.571,0,0,1,43.905-8.98,4.989,4.989,0,0,1,45.338-5.6l.019.687a5.247,5.247,0,0,1-1.29,3.706,4.482,4.482,0,0,1-3.46,1.4,4.5,4.5,0,0,1-3.465-1.392,5.339,5.339,0,0,1-1.294-3.785Zm2.681.19a3.752,3.752,0,0,0,.538,2.188,1.775,1.775,0,0,0,1.54.757,1.779,1.779,0,0,0,1.521-.748,4.106,4.106,0,0,0,.547-2.393,3.715,3.715,0,0,0-.547-2.174,1.779,1.779,0,0,0-1.54-.771,1.75,1.75,0,0,0-1.521.767A4.175,4.175,0,0,0,38.529-4.921Zm2.588-9.329H44.04l-2.57,2.876H39.29Zm8.359,4.212.083,1.16a3.5,3.5,0,0,1,2.885-1.345,2.913,2.913,0,0,1,2.375.937,4.372,4.372,0,0,1,.8,2.8V0H52.937V-6.42a1.739,1.739,0,0,0-.371-1.239,1.661,1.661,0,0,0-1.234-.385,1.844,1.844,0,0,0-1.7.965V0H46.953V-10.038ZM-25.016,18.907a6.049,6.049,0,0,1,1.053-3.739,3.417,3.417,0,0,1,2.881-1.392,3.074,3.074,0,0,1,2.421,1.095V9.75h2.69V24h-2.421l-.13-1.067A3.155,3.155,0,0,1-21.1,24.186a3.407,3.407,0,0,1-2.844-1.4A6.244,6.244,0,0,1-25.016,18.907Zm2.681.2a3.963,3.963,0,0,0,.492,2.165,1.6,1.6,0,0,0,1.429.753,1.794,1.794,0,0,0,1.753-1.05V17.006a1.768,1.768,0,0,0-1.735-1.05Q-22.335,15.957-22.335,19.106Zm13.063,5.079a4.928,4.928,0,0,1-3.595-1.354,4.815,4.815,0,0,1-1.387-3.609v-.26a6.064,6.064,0,0,1,.584-2.7,4.289,4.289,0,0,1,1.656-1.837,4.648,4.648,0,0,1,2.445-.645,4.166,4.166,0,0,1,3.242,1.3,5.278,5.278,0,0,1,1.183,3.683v1.095h-6.392a2.491,2.491,0,0,0,.784,1.577,2.37,2.37,0,0,0,1.656.594A2.894,2.894,0,0,0-6.675,20.9l1.317,1.475A4.025,4.025,0,0,1-6.99,23.708,5.357,5.357,0,0,1-9.273,24.186Zm-.306-8.248a1.675,1.675,0,0,0-1.294.54,2.8,2.8,0,0,0-.635,1.547h3.729v-.214a2,2,0,0,0-.482-1.384A1.729,1.729,0,0,0-9.579,15.938ZM3.938,24H1.248V9.75h2.69Zm1.791-5.112A5.953,5.953,0,0,1,6.3,16.226,4.211,4.211,0,0,1,7.96,14.417a4.831,4.831,0,0,1,2.51-.64,4.571,4.571,0,0,1,3.317,1.243A4.989,4.989,0,0,1,15.219,18.4l.019.687a5.247,5.247,0,0,1-1.29,3.706,4.482,4.482,0,0,1-3.46,1.4,4.5,4.5,0,0,1-3.465-1.392,5.339,5.339,0,0,1-1.294-3.785Zm2.681.19a3.752,3.752,0,0,0,.538,2.188,1.775,1.775,0,0,0,1.54.757,1.779,1.779,0,0,0,1.521-.748,4.106,4.106,0,0,0,.547-2.393,3.715,3.715,0,0,0-.547-2.174,1.779,1.779,0,0,0-1.54-.771,1.75,1.75,0,0,0-1.521.767A4.175,4.175,0,0,0,8.41,19.079Zm13.916,2.148a.864.864,0,0,0-.487-.775,5.533,5.533,0,0,0-1.563-.506q-3.581-.751-3.581-3.043A2.758,2.758,0,0,1,17.8,14.672a4.472,4.472,0,0,1,2.9-.9,4.813,4.813,0,0,1,3.057.9,2.836,2.836,0,0,1,1.146,2.338H22.224a1.3,1.3,0,0,0-.371-.951,1.57,1.57,0,0,0-1.16-.376,1.6,1.6,0,0,0-1.048.306.966.966,0,0,0-.371.779.826.826,0,0,0,.422.719,4.342,4.342,0,0,0,1.424.473,11.631,11.631,0,0,1,1.688.45,2.774,2.774,0,0,1,2.125,2.7,2.618,2.618,0,0,1-1.178,2.222,5.083,5.083,0,0,1-3.043.849,5.309,5.309,0,0,1-2.24-.45A3.759,3.759,0,0,1,16.936,22.5a2.867,2.867,0,0,1-.557-1.693h2.542A1.4,1.4,0,0,0,19.45,21.9a2.1,2.1,0,0,0,1.317.38,1.941,1.941,0,0,0,1.164-.292A.909.909,0,0,0,22.326,21.226ZM-46.266,43.074a6.02,6.02,0,0,1-1.053,3.716,3.376,3.376,0,0,1-2.844,1.4,3.127,3.127,0,0,1-2.458-1.058v4.731H-55.3v-13.9h2.486l.093.983a3.151,3.151,0,0,1,2.542-1.169A3.4,3.4,0,0,1-47.3,39.149a6.183,6.183,0,0,1,1.03,3.785Zm-2.681-.195a3.951,3.951,0,0,0-.5-2.162,1.617,1.617,0,0,0-1.443-.761,1.756,1.756,0,0,0-1.735.965v4.11a1.786,1.786,0,0,0,1.753.993Q-48.947,46.024-48.947,42.879ZM-38.789,48a2.977,2.977,0,0,1-.269-.9,3.244,3.244,0,0,1-2.533,1.085,3.564,3.564,0,0,1-2.445-.854A2.745,2.745,0,0,1-45,45.18a2.837,2.837,0,0,1,1.183-2.449,5.837,5.837,0,0,1,3.419-.863h1.234v-.575a1.654,1.654,0,0,0-.357-1.113,1.405,1.405,0,0,0-1.127-.417,1.6,1.6,0,0,0-1.062.325,1.1,1.1,0,0,0-.385.891h-2.681a2.693,2.693,0,0,1,.538-1.614A3.557,3.557,0,0,1-42.722,38.2a5.545,5.545,0,0,1,2.208-.422,4.381,4.381,0,0,1,2.946.932,3.262,3.262,0,0,1,1.09,2.621v4.351a4.8,4.8,0,0,0,.4,2.162V48Zm-2.217-1.865a2.309,2.309,0,0,0,1.095-.264,1.737,1.737,0,0,0,.742-.71V43.436h-1q-2.013,0-2.143,1.392l-.009.158a1.073,1.073,0,0,0,.353.826A1.369,1.369,0,0,0-41.006,46.135Zm12.228-5.659a7.284,7.284,0,0,0-.965-.074,1.964,1.964,0,0,0-1.995,1.03V48h-2.681V37.962h2.533l.074,1.2a2.484,2.484,0,0,1,2.236-1.382,2.809,2.809,0,0,1,.835.121Zm4.963-4.982v2.468H-22.1v1.967h-1.716v5.01a1.2,1.2,0,0,0,.213.8,1.072,1.072,0,0,0,.816.241A4.276,4.276,0,0,0-22,45.913v2.032a5.519,5.519,0,0,1-1.624.241A2.56,2.56,0,0,1-26.5,45.337V39.929h-1.466V37.962H-26.5V35.494ZM-17.775,48h-2.69V37.962h2.69Zm-2.848-12.636a1.32,1.32,0,0,1,.4-.993,1.516,1.516,0,0,1,1.1-.39,1.52,1.52,0,0,1,1.095.39,1.313,1.313,0,0,1,.408.993,1.316,1.316,0,0,1-.413,1,1.523,1.523,0,0,1-1.09.39,1.523,1.523,0,0,1-1.09-.39A1.316,1.316,0,0,1-20.624,35.364Zm9.231,10.66a1.759,1.759,0,0,0,1.206-.408A1.43,1.43,0,0,0-9.7,44.53H-7.19A3.439,3.439,0,0,1-7.747,46.4a3.673,3.673,0,0,1-1.5,1.317,4.689,4.689,0,0,1-2.1.469,4.358,4.358,0,0,1-3.4-1.368,5.415,5.415,0,0,1-1.243-3.781V42.86a5.353,5.353,0,0,1,1.234-3.7,4.307,4.307,0,0,1,3.386-1.382,4.222,4.222,0,0,1,3.02,1.072A3.794,3.794,0,0,1-7.19,41.7H-9.7a1.842,1.842,0,0,0-.482-1.273,1.608,1.608,0,0,0-1.225-.49,1.615,1.615,0,0,0-1.415.683,3.958,3.958,0,0,0-.478,2.216v.279a4.008,4.008,0,0,0,.473,2.23A1.635,1.635,0,0,0-11.393,46.024ZM-2.83,48H-5.52V37.962h2.69ZM-5.678,35.364a1.32,1.32,0,0,1,.4-.993,1.516,1.516,0,0,1,1.1-.39,1.52,1.52,0,0,1,1.095.39,1.313,1.313,0,0,1,.408.993,1.316,1.316,0,0,1-.413,1,1.523,1.523,0,0,1-1.09.39,1.523,1.523,0,0,1-1.09-.39A1.316,1.316,0,0,1-5.678,35.364ZM8.415,43.074a6.02,6.02,0,0,1-1.053,3.716,3.376,3.376,0,0,1-2.844,1.4A3.127,3.127,0,0,1,2.06,47.128v4.731H-.622v-13.9H1.865l.093.983A3.151,3.151,0,0,1,4.5,37.776a3.4,3.4,0,0,1,2.885,1.373,6.183,6.183,0,0,1,1.03,3.785Zm-2.681-.195a3.951,3.951,0,0,0-.5-2.162,1.617,1.617,0,0,0-1.443-.761,1.756,1.756,0,0,0-1.735.965v4.11a1.786,1.786,0,0,0,1.753.993Q5.733,46.024,5.733,42.879ZM15.892,48a2.977,2.977,0,0,1-.269-.9,3.244,3.244,0,0,1-2.533,1.085,3.564,3.564,0,0,1-2.445-.854,2.745,2.745,0,0,1-.969-2.152,2.837,2.837,0,0,1,1.183-2.449,5.837,5.837,0,0,1,3.419-.863h1.234v-.575a1.654,1.654,0,0,0-.357-1.113,1.405,1.405,0,0,0-1.127-.417,1.6,1.6,0,0,0-1.062.325,1.1,1.1,0,0,0-.385.891H9.9a2.693,2.693,0,0,1,.538-1.614A3.557,3.557,0,0,1,11.958,38.2a5.545,5.545,0,0,1,2.208-.422,4.381,4.381,0,0,1,2.946.932A3.262,3.262,0,0,1,18.2,41.33v4.351a4.8,4.8,0,0,0,.4,2.162V48Zm-2.217-1.865a2.309,2.309,0,0,0,1.095-.264,1.737,1.737,0,0,0,.742-.71V43.436h-1q-2.013,0-2.143,1.392l-.009.158a1.073,1.073,0,0,0,.353.826A1.369,1.369,0,0,0,13.675,46.135Zm9.055-8.173.083,1.16A3.5,3.5,0,0,1,25.7,37.776a2.913,2.913,0,0,1,2.375.937,4.372,4.372,0,0,1,.8,2.8V48H26.19V41.58a1.739,1.739,0,0,0-.371-1.239,1.661,1.661,0,0,0-1.234-.385,1.844,1.844,0,0,0-1.7.965V48H20.206V37.962Zm11.383-2.468v2.468h1.716v1.967H34.113v5.01a1.2,1.2,0,0,0,.213.8,1.072,1.072,0,0,0,.816.241,4.276,4.276,0,0,0,.789-.065v2.032a5.519,5.519,0,0,1-1.624.241,2.56,2.56,0,0,1-2.876-2.848V39.929H29.966V37.962h1.466V35.494Zm7.83,12.691a4.928,4.928,0,0,1-3.595-1.354,4.815,4.815,0,0,1-1.387-3.609v-.26a6.064,6.064,0,0,1,.584-2.7A4.289,4.289,0,0,1,39.2,38.421a4.648,4.648,0,0,1,2.445-.645,4.166,4.166,0,0,1,3.242,1.3,5.278,5.278,0,0,1,1.183,3.683v1.095H39.679a2.491,2.491,0,0,0,.784,1.577,2.37,2.37,0,0,0,1.656.594A2.894,2.894,0,0,0,44.541,44.9l1.317,1.475a4.025,4.025,0,0,1-1.633,1.331A5.357,5.357,0,0,1,41.943,48.186Zm-.306-8.248a1.675,1.675,0,0,0-1.294.54,2.8,2.8,0,0,0-.635,1.547h3.729v-.214a2,2,0,0,0-.482-1.384A1.729,1.729,0,0,0,41.637,39.938Zm11.393,5.288a.864.864,0,0,0-.487-.775,5.533,5.533,0,0,0-1.563-.506Q47.4,43.194,47.4,40.9a2.758,2.758,0,0,1,1.109-2.231,4.472,4.472,0,0,1,2.9-.9,4.813,4.813,0,0,1,3.057.9,2.836,2.836,0,0,1,1.146,2.338H52.927a1.3,1.3,0,0,0-.371-.951,1.57,1.57,0,0,0-1.16-.376,1.6,1.6,0,0,0-1.048.306.966.966,0,0,0-.371.779.826.826,0,0,0,.422.719,4.343,4.343,0,0,0,1.424.473,11.632,11.632,0,0,1,1.688.45,2.774,2.774,0,0,1,2.125,2.7,2.618,2.618,0,0,1-1.178,2.222,5.083,5.083,0,0,1-3.043.849,5.309,5.309,0,0,1-2.24-.45A3.759,3.759,0,0,1,47.639,46.5a2.867,2.867,0,0,1-.557-1.693h2.542a1.4,1.4,0,0,0,.529,1.095,2.1,2.1,0,0,0,1.317.38,1.941,1.941,0,0,0,1.164-.292A.909.909,0,0,0,53.029,45.226Z" transform="translate(800 5557.5)" fill="#040505"/>
  </g>
</svg>
