<svg xmlns="http://www.w3.org/2000/svg" width="610.34" height="626.34" viewBox="0 0 610.34 626.34">
  <g id="Grupo_239796" data-name="Grupo 239796" transform="translate(-615 -5085.001)">
    <g id="Grupo_239795" data-name="Grupo 239795" transform="translate(615 5085)">
      <path id="Trazado_231785" data-name="Trazado 231785" d="M468.035,366.654,399.69,435H303.04l-68.345-68.343V270l68.345-68.343H399.69L468.035,270Z" transform="translate(-46.695 -201.656)" fill="#7ed0eb" style="mix-blend-mode: multiply;isolation: isolate"/>
      <path id="Trazado_231786" data-name="Trazado 231786" d="M188.641,611.147,120.3,542.8V446.151l68.34-68.342H285.3l68.342,68.342V542.8L285.3,611.147Z" transform="translate(-120.301 -87.801)" fill="#7ed0eb" style="mix-blend-mode: multiply;isolation: isolate"/>
      <path id="Trazado_231787" data-name="Trazado 231787" d="M514.078,490.676H417.422l-68.336-68.344V325.676l68.344-68.34h96.656l68.34,68.349,0,96.648Z" transform="translate(27.913 -165.668)" fill="#7ed0eb" style="mix-blend-mode: multiply;isolation: isolate"/>
      <path id="Trazado_231788" data-name="Trazado 231788" d="M419.987,590.969H302.935l-82.755-82.013V392.968l82.765-82.008H420l82.76,82.019,0,115.977Z" transform="translate(-55.744 -131.008)" fill="#101d5e" opacity="0.7" style="mix-blend-mode: multiply;isolation: isolate"/>
      <path id="Trazado_231789" data-name="Trazado 231789" d="M399.7,673.921H303.037l-68.342-68.343V508.923l68.342-68.343h96.652l68.346,68.343v96.646Z" transform="translate(-46.695 -47.58)" fill="#7ed0eb" style="mix-blend-mode: multiply;isolation: isolate"/>
      <path id="Trazado_231790" data-name="Trazado 231790" d="M349.086,542.809V446.152l68.336-68.344h96.656l68.344,68.344,0,96.648-68.34,68.349H417.431Z" transform="translate(27.913 -87.802)" fill="#7ed0eb" style="mix-blend-mode: multiply;isolation: isolate"/>
      <text id="b._Resultados_y_objetivos" data-name="b. Resultados
y objetivos" transform="translate(503 188.549)" fill="#040505" font-size="21" font-family="Roboto-Bold, Roboto" font-weight="700"><tspan x="-64.441" y="0">b. Resultados</tspan><tspan x="-51.034" y="26">y objetivos</tspan></text>
      <text id="Estándares_de_buenas_prácticas_en_simulación" data-name="Estándares
de buenas
prácticas en
simulación" transform="translate(296.627 276.104)" fill="#fff" font-size="25" font-family="Roboto-Bold, Roboto" font-weight="700"><tspan x="-62.872" y="0">Estándares</tspan><tspan x="-57.831" y="30">de buenas</tspan><tspan x="-68.872" y="60">prácticas en</tspan><tspan x="-61.475" y="90">simulación</tspan></text>
      <text id="c._Facilitación" data-name="c. Facilitación" transform="translate(503 421.046)" fill="#040505" font-size="20" font-family="Roboto-Bold, Roboto" font-weight="700"><tspan x="-62.314" y="0">c. Facilitación</tspan></text>
      <text id="e._Integridad_profesional" data-name="e. Integridad
profesional" transform="translate(106.999 408.867)" fill="#040505" font-size="21" font-family="Roboto-Bold, Roboto" font-weight="700"><tspan x="-59.575" y="0">e. Integridad</tspan><tspan x="-53.346" y="26">profesional</tspan></text>
      <path id="Trazado_231791" data-name="Trazado 231791" d="M120.3,422.333V325.679l68.342-68.343H285.3l68.34,68.352v96.646l-68.346,68.343H188.643Z" transform="translate(-120.301 -165.668)" fill="#7ed0eb" style="mix-blend-mode: multiply;isolation: isolate"/>
      <text id="Agencias_reguladoras" data-name="Agencias
reguladoras" transform="translate(117 189.528)" fill="#040505" font-size="20" font-family="Roboto-Bold, Roboto" font-weight="700"><tspan x="-41.812" y="0">Agencias</tspan><tspan x="-53.662" y="25">reguladoras</tspan></text>
      <text id="a._Diseño_de_simulación" data-name="a. Diseño
de simulación" transform="translate(304.999 92)" fill="#040505" font-size="20" font-family="Roboto-Bold, Roboto" font-weight="700"><tspan x="-41.709" y="0">a. Diseño</tspan><tspan x="-62.71" y="25">de simulación</tspan></text>
      <text id="d._Evaluación_de_los_participantes" data-name="d. Evaluación
de los
participantes" transform="translate(305 514)" fill="#040505" font-size="19" font-family="Roboto-Bold, Roboto" font-weight="700"><tspan x="-56.62" y="0">d. Evaluación</tspan><tspan x="-25.629" y="24">de los</tspan><tspan x="-56.332" y="48">participantes</tspan></text>
    </g>
  </g>
</svg>
