<svg xmlns="http://www.w3.org/2000/svg" xmlns:xlink="http://www.w3.org/1999/xlink" width="295" height="283" viewBox="0 0 295 283">
  <defs>
    <linearGradient id="linear-gradient" x1="0.438" y1="3.734" x2="0.443" y2="3.734" gradientUnits="objectBoundingBox">
      <stop offset="0" stop-color="#fff"/>
      <stop offset="1" stop-color="#e6f3fb"/>
    </linearGradient>
    <linearGradient id="linear-gradient-2" x1="0.312" y1="14.364" x2="0.333" y2="14.364" xlink:href="#linear-gradient"/>
  </defs>
  <g id="Grupo_240981" data-name="Grupo 240981" transform="translate(-285 -18816)">
    <rect id="Rect치ngulo_314249" data-name="Rect치ngulo 314249" width="295" height="283" transform="translate(285 18816)" fill="#fff"/>
    <g id="Grupo_239857" data-name="Grupo 239857" transform="translate(-132.501 18500.895)">
      <path id="Trazado_231832" data-name="Trazado 231832" d="M487.568,541.738q-2.254-2.571-4.339-5.293a11.644,11.644,0,0,0-9.243-4.563c-6.989-.007-17.656-.007-17.656-.007a12.607,12.607,0,0,1,0-25.214h39.838a12.607,12.607,0,1,0,0-25.213h-66.06a12.607,12.607,0,0,1,0-25.214h45.385a12.607,12.607,0,1,0,0-25.213h-24.71a12.607,12.607,0,0,1,0-25.214h32.408a11.651,11.651,0,0,0,8.365-3.541,102.57,102.57,0,0,1,163.271,22.7,11.641,11.641,0,0,0,10.208,6.046c7.657.01,18.722.01,18.722.01a12.607,12.607,0,1,1,0,25.213H659.048a12.607,12.607,0,1,0,0,25.214h40.846a12.607,12.607,0,1,1,0,25.213H670.138a11.651,11.651,0,0,0-10.739,7.133,102.662,102.662,0,0,1-17.474,27.943Z" transform="translate(0 0)" fill="#63f2e4" fill-rule="evenodd" style="isolation: isolate"/>
      <path id="Trazado_231833" data-name="Trazado 231833" d="M1726.864,2190.287H1578.2a.7.7,0,1,0,0,1.4h148.665a.7.7,0,1,0,0-1.4Z" transform="translate(-1051.879 -1649.248)" fill="#2d2e85" fill-rule="evenodd"/>
      <path id="Trazado_231834" data-name="Trazado 231834" d="M908.57,2190.287H847.964a.7.7,0,0,0,0,1.4H908.57a.7.7,0,0,0,0-1.4Z" transform="translate(-389.707 -1649.248)" fill="#2d2e85" fill-rule="evenodd"/>
      <path id="Trazado_231835" data-name="Trazado 231835" d="M1139.794,790.594c-1.2,0-2.333-.045-3.182-.12l-50.061-4.453c-.39-.034-3.811-.382-3.811-1.958V653.63c0-.913,1.093-1.437,3-1.437.3,0,.618.014.935.042l50.061,4.452c.812.072,1.9.113,3.06.115h.086c1.172,0,2.27-.041,3.091-.115l50.062-4.453c.857-.077,2-.118,3.214-.118q.332,0,.662,0c1.013.013,1.913.053,2.6.115l50.061,4.452c.638.057,3.817.419,3.817,1.959V789.079c0,.913-1.094,1.438-3,1.438-.3,0-.621-.015-.94-.043l-50.062-4.453c-.648-.058-1.511-.1-2.5-.109-.211,0-.424,0-.638,0-1.181,0-2.281.04-3.095.113l-50.062,4.453c-.861.078-2,.12-3.216.12h-.089Z" transform="translate(-603.234 -254.446)" fill="#fff"/>
      <path id="Trazado_231836" data-name="Trazado 231836" d="M1132.966,785.236c-1.217,0-2.36-.047-3.219-.123l-50.06-4.453a9.113,9.113,0,0,1-3.372-.95,2.016,2.016,0,0,1-1.078-1.7V647.573a1.734,1.734,0,0,1,.805-1.473,5.193,5.193,0,0,1,2.894-.663c.323,0,.659.015,1,.045l50.061,4.452c.8.071,1.862.11,3,.112h.086c1.148,0,2.224-.039,3.028-.112l38.762-3.448a.7.7,0,0,1,.124,1.393l-38.761,3.447c-.837.075-1.958.117-3.154.117h-.087c-1.184,0-2.293-.044-3.121-.117l-50.06-4.452c-.3-.026-.591-.04-.874-.04a4.616,4.616,0,0,0-1.913.308c-.225.107-.388.23-.388.43V778.005a.528.528,0,0,0,.246.394,2.4,2.4,0,0,0,.563.325,8.6,8.6,0,0,0,2.364.543l50.062,4.453c.832.074,1.941.115,3.121.117h.088c1.189,0,2.309-.041,3.153-.117l50.062-4.453c.831-.074,1.952-.116,3.157-.116.216,0,.433,0,.647,0,1.009.014,1.89.052,2.551.112l50.062,4.453c.3.027.593.04.878.04a4.627,4.627,0,0,0,1.913-.308c.225-.108.389-.23.389-.431V652.59a.521.521,0,0,0-.226-.386,2.208,2.208,0,0,0-.523-.315,8.353,8.353,0,0,0-2.431-.562l-32.058-2.851a.7.7,0,1,1,.124-1.393l32.059,2.851a8.815,8.815,0,0,1,3.434.979,2,2,0,0,1,1.02,1.676V783.022a1.736,1.736,0,0,1-.806,1.474,5.2,5.2,0,0,1-2.894.663c-.325,0-.662-.015-1-.046l-50.062-4.453c-.634-.057-1.479-.093-2.445-.106-.208,0-.419,0-.629,0-1.157,0-2.235.039-3.033.11h0l-50.06,4.453c-.878.079-2.042.123-3.279.123h-.114Z" transform="translate(-596.431 -248.389)" fill="#2d2e85" fill-rule="evenodd"/>
      <path id="Trazado_231837" data-name="Trazado 231837" d="M2363.349,665.491V795.924c0,.54-1.427.855-3.18.7l-50.062-4.453c-.718-.064-1.62-.1-2.55-.111V659.665c.93.012,1.833.047,2.55.112l50.062,4.452c1.753.157,3.18.723,3.18,1.262Z" transform="translate(-1713.89 -261.291)" fill="#e2e8f0"/>
      <path id="Trazado_231838" data-name="Trazado 231838" d="M1146.588,665.056V797.449c-1.127,0-2.257-.041-3.122-.117l-50.06-4.453c-1.746-.154-3.174-.722-3.174-1.262V661.184c0-.539,1.428-.853,3.174-.7l50.06,4.451c.865.077,1.994.116,3.122.117Z" transform="translate(-610.028 -262)" fill="#e2e8f0"/>
      <path id="Trazado_231839" data-name="Trazado 231839" d="M1326.945,992.339c3.562-11.278,17.449-19.468,28.756-18.489,4.392.38,8.576,1.214,12.635,1.572,6.264.553,12.233-.013,18.2-4.879,5.3-4.324,7.13-9.328,8.1-14.7.936-5.182,1.049-10.711,2.9-16.267,2.683-8.033,7.629-10.5,13.577-11.982,4.127-1.028,8.72-1.6,13.4-3.108,13.839-4.467,20.587-16.094,24.252-29.5a.7.7,0,0,0-1.349-.369c-3.538,12.944-9.974,24.229-23.333,28.541-4.647,1.5-9.21,2.061-13.308,3.082-6.39,1.592-11.683,4.266-14.565,12.9-1.878,5.624-2.006,11.217-2.953,16.462-.913,5.059-2.611,9.787-7.607,13.861-5.636,4.6-11.281,5.092-17.195,4.57-4.06-.358-8.245-1.191-12.637-1.572-11.885-1.029-26.467,7.606-30.21,19.461a.7.7,0,0,0,1.333.421Z" transform="translate(-823.44 -473.876)" fill="#2d2e85" fill-rule="evenodd"/>
      <ellipse id="Elipse_5181" data-name="Elipse 5181" cx="4.195" cy="4.211" rx="4.195" ry="4.211" transform="translate(546.968 496.755)" fill="#ae4996" style="isolation: isolate"/>
      <ellipse id="Elipse_5182" data-name="Elipse 5182" cx="4.195" cy="4.211" rx="4.195" ry="4.211" transform="translate(573.457 453.658)" fill="#ae4996" style="isolation: isolate"/>
      <ellipse id="Elipse_5183" data-name="Elipse 5183" cx="4.195" cy="4.211" rx="4.195" ry="4.211" transform="translate(498.613 514.391)" fill="#ae4996" style="isolation: isolate"/>
      <path id="Trazado_231840" data-name="Trazado 231840" d="M2572.493,815.86l2.161,4.4,4.833.705-3.5,3.421.825,4.831-4.322-2.28-4.323,2.28.827-4.831-3.5-3.421,4.832-.705,2.162-4.4Z" transform="translate(-1947.79 -402.927)" fill="#ae4996" style="isolation: isolate"/>
      <g id="Grupo_239848" data-name="Grupo 239848" transform="translate(510.425 469.663)">
        <g id="Grupo_239844" data-name="Grupo 239844" transform="translate(4.486 6.45)">
          <path id="Trazado_231841" data-name="Trazado 231841" d="M1490.06,1494.43a.357.357,0,0,1-.095.012h-27a.367.367,0,0,1,0-.734h27a.368.368,0,0,1,.095.722Z" transform="translate(-1462.595 -1493.708)" fill="lime"/>
        </g>
        <g id="Grupo_239845" data-name="Grupo 239845" transform="translate(4.486 10.345)">
          <path id="Trazado_231842" data-name="Trazado 231842" d="M1487.147,1536.223a.374.374,0,0,1-.094.013h-24.095a.367.367,0,0,1,0-.734h24.095a.367.367,0,0,1,.094.721Z" transform="translate(-1462.593 -1535.501)" fill="lime"/>
        </g>
        <path id="Trazado_231843" data-name="Trazado 231843" d="M1454.08,1428.4v16.556a.552.552,0,0,1-.868.538l-6.895-3.46h-27.976a3.9,3.9,0,0,1-3.881-3.9V1428.4a3.9,3.9,0,0,1,3.882-3.9H1450.2A3.9,3.9,0,0,1,1454.08,1428.4Z" transform="translate(-1414.461 -1424.508)" fill="#3ab4ea" style="isolation: isolate"/>
        <g id="Grupo_239846" data-name="Grupo 239846" transform="translate(4.12 6.084)">
          <path id="Trazado_231844" data-name="Trazado 231844" d="M1486.593,1491.227a.758.758,0,0,1-.19.024H1459.4a.733.733,0,0,1,0-1.466H1486.4a.734.734,0,0,1,.19,1.442Z" transform="translate(-1458.668 -1489.785)" fill="#fff"/>
        </g>
        <g id="Grupo_239847" data-name="Grupo 239847" transform="translate(4.121 9.98)">
          <path id="Trazado_231845" data-name="Trazado 231845" d="M1483.688,1533.02a.7.7,0,0,1-.189.025H1459.4a.733.733,0,0,1,0-1.467H1483.5a.734.734,0,0,1,.189,1.442Z" transform="translate(-1458.673 -1531.578)" fill="#fff"/>
        </g>
      </g>
      <g id="Grupo_239853" data-name="Grupo 239853" transform="translate(535.832 428.535)">
        <g id="Grupo_239849" data-name="Grupo 239849" transform="translate(4.487 6.45)">
          <path id="Trazado_231846" data-name="Trazado 231846" d="M1762.657,1053.17a.336.336,0,0,1-.095.012h-27a.367.367,0,0,1,0-.734h27a.367.367,0,0,1,.095.721Z" transform="translate(-1735.193 -1052.448)" fill="lime"/>
        </g>
        <g id="Grupo_239850" data-name="Grupo 239850" transform="translate(4.487 10.345)">
          <path id="Trazado_231847" data-name="Trazado 231847" d="M1759.748,1094.963a.366.366,0,0,1-.095.012h-24.094a.367.367,0,0,1,0-.734h24.095a.367.367,0,0,1,.094.721Z" transform="translate(-1735.193 -1094.241)" fill="lime"/>
        </g>
        <path id="Trazado_231848" data-name="Trazado 231848" d="M1726.674,987.145V1003.7a.553.553,0,0,1-.869.538l-6.894-3.46h-27.975a3.9,3.9,0,0,1-3.881-3.9v-9.738a3.9,3.9,0,0,1,3.881-3.9h31.856A3.9,3.9,0,0,1,1726.674,987.145Z" transform="translate(-1687.055 -983.248)" fill="#3ab4ea" style="isolation: isolate"/>
        <g id="Grupo_239851" data-name="Grupo 239851" transform="translate(4.121 6.084)">
          <path id="Trazado_231849" data-name="Trazado 231849" d="M1759.193,1049.963a.745.745,0,0,1-.19.024h-27a.733.733,0,0,1,0-1.467h27a.734.734,0,0,1,.19,1.443Z" transform="translate(-1731.268 -1048.52)" fill="#fff"/>
        </g>
        <g id="Grupo_239852" data-name="Grupo 239852" transform="translate(4.121 9.98)">
          <path id="Trazado_231850" data-name="Trazado 231850" d="M1756.286,1091.761a.727.727,0,0,1-.189.025H1732a.733.733,0,0,1,0-1.466H1756.1a.734.734,0,0,1,.189,1.442Z" transform="translate(-1731.272 -1090.319)" fill="#fff"/>
        </g>
      </g>
      <g id="Grupo_239854" data-name="Grupo 239854" transform="translate(432.208 413.668)">
        <circle id="Elipse_5184" data-name="Elipse 5184" cx="27.74" cy="27.74" r="27.74" transform="translate(14.536 0.699)" fill="#aed9ef" style="isolation: isolate"/>
        <path id="Trazado_231851" data-name="Trazado 231851" d="M729.693,869.568a28.435,28.435,0,1,0-5.938-17.386.7.7,0,0,0,1.4,0,27.05,27.05,0,1,1,5.645,16.53.7.7,0,1,0-1.105.856Z" transform="translate(-709.917 -823.743)" fill="#2d2e85" fill-rule="evenodd"/>
        <circle id="Elipse_5185" data-name="Elipse 5185" cx="19.76" cy="19.76" r="19.76" transform="translate(22.517 8.679)" fill="url(#linear-gradient)"/>
        <circle id="Elipse_5186" data-name="Elipse 5186" cx="11.779" cy="11.779" r="11.779" transform="translate(25.619 28.44) rotate(-45)" fill="#ae4996" style="isolation: isolate"/>
        <circle id="Elipse_5187" data-name="Elipse 5187" cx="4.6" cy="4.6" r="4.6" transform="translate(37.677 23.84)" fill="url(#linear-gradient-2)"/>
        <rect id="Rect치ngulo_314250" data-name="Rect치ngulo 314250" width="36.919" height="2.11" transform="translate(5.358 27.512)" fill="#2d2e85"/>
        <path id="Trazado_231852" data-name="Trazado 231852" d="M587.442,1048.555l-4.372-5.838c-.575-.767-.26-1.394.7-1.394H594.66a3.94,3.94,0,0,1,2.788,1.394l4.371,5.838Z" transform="translate(-582.084 -1021.043)" fill="#3ab4ea" style="isolation: isolate"/>
        <path id="Trazado_231853" data-name="Trazado 231853" d="M576.713,1035.262a1.226,1.226,0,0,0,.126.235l4.372,5.838a.7.7,0,0,1-1.119.838l-4.372-5.838a1.474,1.474,0,0,1,1.259-2.513h3.268a.7.7,0,0,1,0,1.4h-3.268a1.165,1.165,0,0,0-.266.041Z" transform="translate(-575.294 -1014.241)" fill="#2d2e85" fill-rule="evenodd"/>
        <path id="Trazado_231854" data-name="Trazado 231854" d="M674.392,1035.218H677.1a3.149,3.149,0,0,1,2.229,1.115l4.371,5.837a.7.7,0,1,0,1.119-.838l-4.372-5.838a4.728,4.728,0,0,0-3.347-1.674h-2.705a.7.7,0,1,0,0,1.4Z" transform="translate(-664.521 -1014.239)" fill="#2d2e85" fill-rule="evenodd"/>
        <path id="Trazado_231855" data-name="Trazado 231855" d="M587.442,1139.413l-4.372,5.837c-.575.767-.26,1.4.7,1.4H594.66a3.938,3.938,0,0,0,2.788-1.4l4.371-5.837Z" transform="translate(-582.084 -1109.99)" fill="#3ab4ea" style="isolation: isolate"/>
        <path id="Trazado_231856" data-name="Trazado 231856" d="M579.959,1113.8l.044-1.686a.7.7,0,0,1,1.4.036l-.049,1.908a.7.7,0,0,1-.139.4l-4.372,5.837a1.249,1.249,0,0,0-.126.236,1.14,1.14,0,0,0,.266.042h10.892a3.145,3.145,0,0,0,2.228-1.115l1.6-2.141a.7.7,0,1,1,1.119.838l-1.6,2.141a4.728,4.728,0,0,1-3.348,1.675H576.979a1.474,1.474,0,0,1-1.259-2.513l4.239-5.659Z" transform="translate(-575.295 -1084.62)" fill="#2d2e85" fill-rule="evenodd"/>
      </g>
      <g id="Grupo_239855" data-name="Grupo 239855" transform="translate(617.447 448.666)">
        <path id="Trazado_231857" data-name="Trazado 231857" d="M2842.34,1251.864c7.272-1.848,18.611,2.958,22.062,12.08s2.957,32.07,11.217,50.657c.493,1.11-3.205,4.93-9,5.793s-24.281-68.53-24.281-68.53Z" transform="translate(-2816.274 -1246.604)" fill="#ae4996" style="isolation: isolate"/>
        <path id="Trazado_231858" data-name="Trazado 231858" d="M2868.164,1308.057a75.886,75.886,0,0,1-3.308-9.061.7.7,0,0,1,1.34-.4,74.355,74.355,0,0,0,3.266,8.937,1.428,1.428,0,0,1,.033.984,3.9,3.9,0,0,1-.764,1.322,14.694,14.694,0,0,1-8.8,4.462,2.148,2.148,0,0,1-1.765-.766c-1.045-1.025-2.33-3.3-3.726-6.438-7.713-17.352-19.568-61.838-19.568-61.838a.7.7,0,0,1,.5-.858c3.777-.96,8.615-.213,12.952,1.98a20.147,20.147,0,0,1,9.937,10.53c1.429,3.778,2.2,9.9,3.172,17.114a.7.7,0,1,1-1.385.187c-.956-7.079-1.692-13.1-3.095-16.807a18.734,18.734,0,0,0-9.26-9.776,18.452,18.452,0,0,0-11.284-2.025c1.543,5.734,12.191,44.917,19.305,60.925a27.656,27.656,0,0,0,3.038,5.571,3.453,3.453,0,0,0,.709.7c.1.066.177.126.261.114a13.26,13.26,0,0,0,7.93-3.968,2.932,2.932,0,0,0,.468-.729,1.071,1.071,0,0,0,.045-.164Z" transform="translate(-2809.477 -1239.82)" fill="#2d2e85" fill-rule="evenodd"/>
        <path id="Trazado_231859" data-name="Trazado 231859" d="M2608.482,1242.1c.743-2.5.492-6.656,0-6.41-4.638,2.316-7.857-.192-8.875.37-8.259,4.561-13.558.738-14.174-1.6-.388-1.474,2.2-3.982,5.545-6.655,5.547-4.438,9.245-13.065,15.038-13.56,0,0-.074-.384-.18-.98-.366-2.057-1.1-6.633-.436-6.538,2.686.384,8.134,7.889,9.491,8.5,4.007,1.825,6.663,4.958,8.561,9.213,2.29,5.12,3.482,11.862,4.626,19.875,1.386,9.7,7.642,27.855,7.642,38.457h-37.346a63.155,63.155,0,0,1,.393-7.184,61.533,61.533,0,0,1,1.659-8.751c1.938-7.4,5-14.444,8.057-24.739Z" transform="translate(-2583.278 -1206.027)" fill="#fff"/>
        <path id="Trazado_231860" data-name="Trazado 231860" d="M2755.612,1340.69l.054-.134.07-.176c.042-.113.093-.237.155-.367a3.184,3.184,0,0,1,.2-.323,3.227,3.227,0,0,1,.854-.794,4.912,4.912,0,0,1,1.177-.546c.162-.05.3-.086.395-.108l.157-.036a.321.321,0,0,1,.258.588c.009,0-.143.122-.342.334a3.656,3.656,0,0,0-.582.818,1.728,1.728,0,0,0-.151.429,1.181,1.181,0,0,0-.017.177c.007.048,0,.108.014.129l.038.033c0-.01.008.044.011.064s.006.052.009.075l.018.143a1.212,1.212,0,1,1-2.4.3,1.228,1.228,0,0,1,.081-.61Z" transform="translate(-2737.549 -1325.229)" fill="#3ab4ea" style="isolation: isolate"/>
        <path id="Trazado_231861" data-name="Trazado 231861" d="M2712.976,2028.326l-.124-2.142a5.371,5.371,0,0,0-4.8-3.527H2669.59a5.372,5.372,0,0,0-4.805,3.528v2.143Z" transform="translate(-2655.267 -1945.908)" fill="#aed9ef" style="isolation: isolate"/>
        <path id="Trazado_231862" data-name="Trazado 231862" d="M3095.234,2019.514a4.636,4.636,0,0,0-4.112-2.959h-3.189a.7.7,0,1,1,0-1.4h3.189a6.117,6.117,0,0,1,5.472,4.017.677.677,0,0,1,.031.169l.124,2.142a.7.7,0,0,1-1.4.081l-.119-2.052Z" transform="translate(-3038.341 -1939.108)" fill="#2d2e85" fill-rule="evenodd"/>
        <path id="Trazado_231863" data-name="Trazado 231863" d="M2666.508,2015.153h-3.7a6.118,6.118,0,0,0-5.472,4.017.7.7,0,0,0,1.334.419,4.627,4.627,0,0,1,4.138-3.038h3.7a.7.7,0,0,0,0-1.4Z" transform="translate(-2648.48 -1939.104)" fill="#2d2e85" fill-rule="evenodd"/>
        <path id="Trazado_231864" data-name="Trazado 231864" d="M2636.013,2094.084l-2.22-7.073a5.373,5.373,0,0,0-4.8-3.528h-51.777a5.373,5.373,0,0,0-4.806,3.528l-2.22,7.072Z" transform="translate(-2569.486 -2001.066)" fill="#3ab4ea" style="isolation: isolate"/>
        <path id="Trazado_231865" data-name="Trazado 231865" d="M2628.26,2092.475l-1.935-6.164a4.57,4.57,0,0,0-2.215-2.516.7.7,0,1,1,.662-1.231,6,6,0,0,1,2.886,3.329l2.221,7.073a.7.7,0,0,1-.667.908h-65.828a.7.7,0,0,1-.667-.908l1.482-4.723a.7.7,0,0,1,1.334.419l-1.2,3.814Z" transform="translate(-2562.686 -2000.156)" fill="#2d2e85" fill-rule="evenodd"/>
        <path id="Trazado_231866" data-name="Trazado 231866" d="M2658.488,2075.986h-42.272a5.554,5.554,0,0,0-2.656.727.7.7,0,0,0,.677,1.224,4.142,4.142,0,0,1,1.979-.552h42.272a.7.7,0,0,0,0-1.4Z" transform="translate(-2608.491 -1994.267)" fill="#2d2e85" fill-rule="evenodd"/>
        <path id="Trazado_231867" data-name="Trazado 231867" d="M2755.688,1513.943c-1.693,7.563-6.208,10.869-9.015,18.174,1.937-7.4,5-14.445,8.055-24.739.743-2.5.492-6.656,0-6.41a9.107,9.107,0,0,0,1.75-1.7A46.7,46.7,0,0,1,2755.688,1513.943Z" transform="translate(-2729.524 -1471.303)" fill="#e2e8f0"/>
        <path id="Trazado_231868" data-name="Trazado 231868" d="M2761.993,1455.162h-37.346a63.216,63.216,0,0,1,.393-7.184l.063-.059c-.225,2.032-.451,5.418,4.29,5.418h24.835c2.031,0,3.415-2.968,2.822-10.611-.79-10.159-5.418-15.8-5.192-25.172.111-4.59.194-12.573-2.132-20.724,2.29,5.12,3.482,11.862,4.626,19.875,1.387,9.7,7.642,27.855,7.642,38.457Z" transform="translate(-2709.551 -1378.413)" fill="#e2e8f0"/>
        <path id="Trazado_231869" data-name="Trazado 231869" d="M2718.543,1659.618h9.012a.7.7,0,0,1,0,1.4h-9.715a.7.7,0,0,1-.7-.7,63.868,63.868,0,0,1,.4-7.263,62.21,62.21,0,0,1,1.677-8.849c1.671-6.379,4.171-12.494,6.79-20.647a.7.7,0,0,1,1.331.427c-2.609,8.124-5.1,14.217-6.768,20.574a60.79,60.79,0,0,0-1.64,8.652A61.557,61.557,0,0,0,2718.543,1659.618Z" transform="translate(-2702.745 -1583.568)" fill="#2d2e85" fill-rule="evenodd"/>
        <path id="Trazado_231870" data-name="Trazado 231870" d="M2598.421,1206.868l-.049-.269a33.862,33.862,0,0,1-.687-6.3c.1-.864.65-1.111,1.039-1.056a4.452,4.452,0,0,1,1.767.787,19.919,19.919,0,0,1,2.742,2.4c1.6,1.613,3.195,3.493,4.29,4.6a4.247,4.247,0,0,0,.883.776,16.332,16.332,0,0,1,2.65,1.514.7.7,0,0,1-.806,1.143,14.9,14.9,0,0,0-2.423-1.385,5.545,5.545,0,0,1-1.3-1.066c-1.095-1.11-2.693-2.989-4.289-4.6a18.4,18.4,0,0,0-2.533-2.222,5.137,5.137,0,0,0-.639-.38c-.006.169-.007.361,0,.539a49.456,49.456,0,0,0,.68,5c.1.589.179.969.179.969a.7.7,0,0,1-.627.83c-2.158.185-3.981,1.619-5.75,3.492-2.87,3.039-5.559,7.235-8.911,9.917a28.436,28.436,0,0,0-4.6,4.323,4.46,4.46,0,0,0-.62,1.037.949.949,0,0,0-.083.572,3.711,3.711,0,0,0,1.5,1.851c2.153,1.542,6.221,2.32,11.656-.682a1.557,1.557,0,0,1,.826-.17,6.243,6.243,0,0,1,1.171.214,8.984,8.984,0,0,0,6.9-.428.764.764,0,0,1,.559-.057.844.844,0,0,1,.487.364,2.039,2.039,0,0,1,.253.672,11.316,11.316,0,0,1,.181,2.2.7.7,0,0,1-1.4,0,11.834,11.834,0,0,0-.095-1.638,9.849,9.849,0,0,1-6.482.424c-.518-.123-.962-.251-1.326-.319a2.124,2.124,0,0,0-.308-.04,1.045,1.045,0,0,0-.11.005c-6.119,3.373-10.707,2.322-13.131.586a5.1,5.1,0,0,1-2.042-2.631,2.815,2.815,0,0,1,.47-2.118,24.368,24.368,0,0,1,5.314-5.261c3.3-2.644,5.939-6.79,8.768-9.785,1.819-1.927,3.727-3.383,5.886-3.816Z" transform="translate(-2576.503 -1199.239)" fill="#2d2e85" fill-rule="evenodd"/>
        <path id="Trazado_231871" data-name="Trazado 231871" d="M2998.467,1447.667c-.26-10.658-6.273-28.19-7.626-37.659-1.133-7.936-2.3-14.616-4.571-19.688a.7.7,0,1,1,1.276-.57c2.312,5.169,3.524,11.972,4.68,20.061,1.39,9.728,7.649,27.927,7.649,38.556a.7.7,0,0,1-.7.7H2992.2a.7.7,0,1,1,0-1.4Z" transform="translate(-2946.733 -1371.617)" fill="#2d2e85" fill-rule="evenodd"/>
      </g>
      <g id="Grupo_239856" data-name="Grupo 239856" transform="translate(579.606 387.288)">
        <path id="Trazado_231872" data-name="Trazado 231872" d="M2192.831,576.963v4.959a.7.7,0,1,1-1.4,0v-5.658a.7.7,0,0,1,.7-.7h5.636a.7.7,0,1,1,0,1.4Z" transform="translate(-2188.196 -572.317)" fill="#2d2e85" fill-rule="evenodd"/>
        <path id="Trazado_231873" data-name="Trazado 231873" d="M2377.242,576.963h-4.936a.7.7,0,0,1,0-1.4h5.635a.7.7,0,0,1,.7.7v5.658a.7.7,0,1,1-1.4,0v-4.959Z" transform="translate(-2351.576 -572.317)" fill="#2d2e85" fill-rule="evenodd"/>
        <path id="Trazado_231874" data-name="Trazado 231874" d="M2192.831,762.055h4.937a.7.7,0,1,1,0,1.4h-5.636a.7.7,0,0,1-.7-.7V757.1a.7.7,0,0,1,1.4,0Z" transform="translate(-2188.196 -736.295)" fill="#2d2e85" fill-rule="evenodd"/>
        <path id="Trazado_231875" data-name="Trazado 231875" d="M2377.242,762.055V757.1a.7.7,0,0,1,1.4,0v5.657a.7.7,0,0,1-.7.7h-5.635a.7.7,0,0,1,0-1.4h4.936Z" transform="translate(-2351.576 -736.295)" fill="#2d2e85" fill-rule="evenodd"/>
        <path id="Trazado_231876" data-name="Trazado 231876" d="M2313.146,547.207v-5.788a.7.7,0,0,0-1.4,0v5.788a.7.7,0,0,0,1.4,0Z" transform="translate(-2297.296 -540.72)" fill="#2d2e85" fill-rule="evenodd"/>
        <path id="Trazado_231877" data-name="Trazado 231877" d="M2313.146,796.341v-5.788a.7.7,0,0,0-1.4,0v5.788a.7.7,0,0,0,1.4,0Z" transform="translate(-2297.296 -766.633)" fill="#2d2e85" fill-rule="evenodd"/>
        <path id="Trazado_231878" data-name="Trazado 231878" d="M2405.632,697.731h5.767a.7.7,0,1,0,0-1.4h-5.767a.7.7,0,1,0,0,1.4Z" transform="translate(-2381.796 -681.829)" fill="#2d2e85" fill-rule="evenodd"/>
        <path id="Trazado_231879" data-name="Trazado 231879" d="M2157.4,697.731h5.767a.7.7,0,1,0,0-1.4H2157.4a.7.7,0,0,0,0,1.4Z" transform="translate(-2156.7 -681.829)" fill="#2d2e85" fill-rule="evenodd"/>
      </g>
    </g>
  </g>
</svg>
