<svg xmlns="http://www.w3.org/2000/svg" xmlns:xlink="http://www.w3.org/1999/xlink" width="63" height="63" viewBox="0 0 63 63">
  <defs>
    <clipPath id="clip-path">
      <rect id="Rectángulo_314339" data-name="Rectángulo 314339" width="63" height="63" fill="#262626"/>
    </clipPath>
  </defs>
  <g id="Grupo_240803" data-name="Grupo 240803" transform="translate(-0.055 -0.055)">
    <g id="Grupo_240800" data-name="Grupo 240800" transform="translate(0.055 0.055)">
      <g id="Grupo_240799" data-name="Grupo 240799" clip-path="url(#clip-path)">
        <path id="Trazado_232746" data-name="Trazado 232746" d="M278.234,291.284l.27-.446a25.627,25.627,0,0,1-2.165-2.337c-3.947-4.846-5.593-10.618-4.514-15.838a14.383,14.383,0,0,1,4.068-7.348,14.817,14.817,0,0,1,7.386-3.982,16.132,16.132,0,0,1,10.218,1.272,13.992,13.992,0,0,1,6.277,5.8h3.4a5.552,5.552,0,0,1,5.546,5.546v7.395a5.515,5.515,0,0,1-5.546,5.521h-3.009a39.229,39.229,0,0,1-2.855,10.095,1.848,1.848,0,0,1-1.653,1.022,23.209,23.209,0,0,1-6.289-.891c-.162,2.48,1.557,4.432,3.538,6.681,2.155,2.447,4.6,5.221,4.6,9.12a1.841,1.841,0,0,1-1.913,1.849l-22.243-.024a1.812,1.812,0,0,1-1.849-1.824v-1.458c0-8.57,2.559-13.24,6.734-20.15Zm19.271-8.09h5.669a1.851,1.851,0,0,0,1.849-1.849V273.95a1.889,1.889,0,0,0-1.849-1.874l-5.669.025Zm-13.479-18.24a11.25,11.25,0,0,0-8.581,8.458,12.1,12.1,0,0,0-.247,2.387h18.609v-5.546a1.848,1.848,0,0,1,1.489-1.813,12.113,12.113,0,0,0-11.27-3.486Zm10.419,29.291a42.246,42.246,0,0,0,1.965-7.379h-.754a1.812,1.812,0,0,1-1.849-1.824v-5.571H275.692a18.034,18.034,0,0,0,3.513,6.7,22.1,22.1,0,0,0,15.24,8.078Zm-.964,16.8a15.983,15.983,0,0,0-3.35-4.827c-2.288-2.6-4.882-5.542-4.42-9.754l.076-.688a25.971,25.971,0,0,1-4.405-2.551c-3.882,6.425-6.106,10.475-6.182,17.82Zm0,0" transform="translate(-271.551 -251.691)" fill="#262626"/>
        <path id="Trazado_232747" data-name="Trazado 232747" d="M116.923,484.517l3.009,2.148a1.849,1.849,0,0,1-2.149,3.009l-3.009-2.149a1.849,1.849,0,1,1,2.149-3.009Zm0,0" transform="translate(-57.655 -438.183)" fill="#262626"/>
      </g>
    </g>
    <path id="Trazado_232748" data-name="Trazado 232748" d="M171.849,445.282l3.009,2.149a1.849,1.849,0,1,1-2.149,3.009l-3.008-2.149a1.848,1.848,0,1,1,2.148-3.009Zm0,0" transform="translate(-121.553 -405.341)" fill="#262626"/>
    <g id="Grupo_240802" data-name="Grupo 240802" transform="translate(0.055 0.055)">
      <g id="Grupo_240801" data-name="Grupo 240801" clip-path="url(#clip-path)">
        <path id="Trazado_232749" data-name="Trazado 232749" d="M226.777,406.049l3.009,2.149a1.849,1.849,0,1,1-2.149,3.009l-3.008-2.149a1.849,1.849,0,0,1,2.149-3.008Zm0,0" transform="translate(-185.561 -372.61)" fill="#262626"/>
        <path id="Trazado_232750" data-name="Trazado 232750" d="M119.93,207.349l-3,2.158a1.849,1.849,0,0,1-2.159-3l3-2.159a1.849,1.849,0,1,1,2.159,3Zm0,0" transform="translate(-57.649 -204.05)" fill="#262626"/>
      </g>
    </g>
    <path id="Trazado_232751" data-name="Trazado 232751" d="M174.732,246.756l-3,2.159a1.849,1.849,0,0,1-2.159-3l3-2.159a1.848,1.848,0,1,1,2.158,3Zm0,0" transform="translate(-121.402 -236.927)" fill="#262626"/>
    <path id="Trazado_232752" data-name="Trazado 232752" d="M229.537,286.162l-3,2.159a1.848,1.848,0,1,1-2.158-3l3-2.159a1.849,1.849,0,1,1,2.159,3Zm0,0" transform="translate(-185.213 -269.858)" fill="#262626"/>
  </g>
</svg>
