<svg xmlns="http://www.w3.org/2000/svg" xmlns:xlink="http://www.w3.org/1999/xlink" width="1030" height="745" viewBox="0 0 1030 745">
  <defs>
    <clipPath id="clip-path">
      <rect id="Rectángulo_314187" data-name="Rectángulo 314187" width="1030" height="745" transform="translate(285 3454)" fill="#fff" stroke="#707070" stroke-width="1"/>
    </clipPath>
  </defs>
  <g id="Enmascarar_grupo_168" data-name="Enmascarar grupo 168" transform="translate(-285 -3454)" clip-path="url(#clip-path)">
    <g id="Grupo_239793" data-name="Grupo 239793" transform="translate(158 31.151)">
      <g id="Grupo_239792" data-name="Grupo 239792" transform="translate(180 3423)">
        <path id="Trazado_231762" data-name="Trazado 231762" d="M28.693,184.8a2.02,2.02,0,0,1,1.009-1.748l24.616-14.214a2.026,2.026,0,0,1,2.019,0l24.616,14.212a2.025,2.025,0,0,1,1.009,1.749V896.749a2.021,2.021,0,0,1-1.009,1.748L56.338,912.711a2.026,2.026,0,0,1-2.019,0L29.7,898.5a2.025,2.025,0,0,1-1.009-1.749Z" transform="translate(-28.693 -168.569)" fill="#acdee1" stroke="#fff" stroke-miterlimit="10" stroke-width="2"/>
        <text id="Evaluación_de_una_simulación" data-name="Evaluación de una simulación" transform="translate(29.005 550.076) rotate(-90)" fill="#1a1818" font-size="22" font-family="Roboto-Bold, Roboto" font-weight="700"><tspan x="0" y="0">Evaluación de una simulación</tspan></text>
        <path id="Trazado_231763" data-name="Trazado 231763" d="M116.547,327.5a3.194,3.194,0,0,1-2.8-1.975l-22.8-48.21a4.735,4.735,0,0,1,0-3.954l22.8-48.208a3.193,3.193,0,0,1,2.8-1.977H206.83a3.193,3.193,0,0,1,2.8,1.977l22.8,48.208a4.738,4.738,0,0,1,0,3.956l-22.8,48.207a3.193,3.193,0,0,1-2.8,1.977Z" transform="translate(12.973 -131.764)" fill="#20338a" stroke="#fff" stroke-miterlimit="10" stroke-width="2"/>
        <path id="Trazado_231764" data-name="Trazado 231764" d="M85.479,247.249h-23.4l9.96,11.669-9.96,12.057h23.4l9.959-12.057Z" transform="translate(-6.191 -115.538)" fill="#a01e81" style="isolation: isolate"/>
        <path id="Trazado_231765" data-name="Trazado 231765" d="M85.479,388.913h-23.4l9.96,11.669-9.96,12.057h23.4l9.959-12.057Z" transform="translate(-6.191 -20.055)" fill="#a01e81" style="isolation: isolate"/>
        <text id="Del_participante" data-name="Del
participante" transform="translate(131.285 123.83)" fill="#fff" font-size="16" font-family="Roboto-Bold, Roboto" font-weight="700" style="isolation: isolate"><tspan x="31.731" y="17">Del</tspan><tspan x="0.052" y="33.4">participante</tspan></text>
        <path id="Trazado_231766" data-name="Trazado 231766" d="M116.547,469.165a3.194,3.194,0,0,1-2.8-1.975l-22.8-48.21a4.735,4.735,0,0,1,0-3.954l22.8-48.208a3.193,3.193,0,0,1,2.8-1.977H206.83a3.193,3.193,0,0,1,2.8,1.977l22.8,48.208a4.735,4.735,0,0,1,0,3.954l-22.8,48.208a3.193,3.193,0,0,1-2.8,1.977Z" transform="translate(12.973 -36.28)" fill="#00a9e9" style="isolation: isolate"/>
        <text id="Del_instructor_facilitador" data-name="Del
instructor
facilitador" transform="translate(131.285 352.7)" fill="#101c5b" font-size="16" font-family="Roboto-Bold, Roboto" font-weight="700" style="isolation: isolate"><tspan x="31.731" y="17">Del</tspan><tspan x="8.364" y="33.4">instructor</tspan><tspan x="6.743" y="49.8">facilitador</tspan></text>
        <path id="Trazado_231767" data-name="Trazado 231767" d="M85.479,525.25h-23.4l9.96,11.669-9.96,12.057h23.4l9.959-12.057Z" transform="translate(-6.191 71.838)" fill="#a01e81" style="isolation: isolate"/>
        <path id="Trazado_231768" data-name="Trazado 231768" d="M116.547,605.5a3.193,3.193,0,0,1-2.8-1.977l-22.8-48.208a4.738,4.738,0,0,1,0-3.956l22.8-48.208a3.2,3.2,0,0,1,2.8-1.977H206.83a3.2,3.2,0,0,1,2.8,1.977l22.8,48.208a4.738,4.738,0,0,1,0,3.956l-22.8,48.208a3.193,3.193,0,0,1-2.8,1.977Z" transform="translate(12.973 55.611)" fill="#17b1b8" stroke="#fff" stroke-miterlimit="10" stroke-width="2"/>
        <text id="Del_escenario_simulado" data-name="Del
escenario
simulado" transform="translate(131.285 580.93)" fill="#101c5b" font-size="16" font-family="Roboto-Bold, Roboto" font-weight="700" style="isolation: isolate"><tspan x="31.731" y="17">Del</tspan><tspan x="8.11" y="33.4">escenario</tspan><tspan x="10.298" y="49.8">simulado</tspan></text>
        <g id="DESIGNED_BY_FREEPIK" data-name="DESIGNED BY FREEPIK" transform="translate(250.517 16.231)">
          <path id="Trazado_231769" data-name="Trazado 231769" d="M360.025,343.78V303.647a11.439,11.439,0,0,0-11.44-11.439H232a11.438,11.438,0,0,0-11.439,11.439v11.889l-10.21,7.742,10.21,7.742V343.78A11.438,11.438,0,0,0,232,355.219H348.585A11.439,11.439,0,0,0,360.025,343.78Z" transform="translate(-156.77 -101.465)" fill="#a698c8" style="isolation: isolate"/>
          <path id="Trazado_231770" data-name="Trazado 231770" d="M756.156,343.78V303.647a11.438,11.438,0,0,0-11.438-11.439h-401.3a11.438,11.438,0,0,0-11.438,11.439v11.889l-10.21,7.742,10.21,7.742V343.78a11.438,11.438,0,0,0,11.438,11.439h401.3A11.438,11.438,0,0,0,756.156,343.78Z" transform="translate(-81.673 -101.591)" fill="#d9d1e8"/>
          <path id="Trazado_231771" data-name="Trazado 231771" d="M360.025,287.087V246.955a11.439,11.439,0,0,0-11.44-11.439H232a11.438,11.438,0,0,0-11.439,11.439v11.889l-10.21,7.742,10.21,7.742v12.759A11.438,11.438,0,0,0,232,298.526H348.585A11.439,11.439,0,0,0,360.025,287.087Z" transform="translate(-156.77 -139.677)" fill="#a698c8" style="isolation: isolate"/>
          <path id="Trazado_231772" data-name="Trazado 231772" d="M756.156,287.087V246.955a11.438,11.438,0,0,0-11.438-11.439h-401.3a11.438,11.438,0,0,0-11.438,11.439v11.889l-10.21,7.742,10.21,7.742v12.759a11.438,11.438,0,0,0,11.438,11.439h401.3A11.438,11.438,0,0,0,756.156,287.087Z" transform="translate(-81.673 -139.898)" fill="#d9d1e8"/>
          <path id="Trazado_231773" data-name="Trazado 231773" d="M360.025,229.836V189.7a11.439,11.439,0,0,0-11.44-11.439H232A11.438,11.438,0,0,0,220.562,189.7v11.889l-10.21,7.742,10.21,7.742v12.759A11.438,11.438,0,0,0,232,241.275H348.585A11.439,11.439,0,0,0,360.025,229.836Z" transform="translate(-156.77 -178.265)" fill="#a698c8"/>
          <path id="Trazado_231774" data-name="Trazado 231774" d="M756.156,229.836V189.7a11.438,11.438,0,0,0-11.438-11.439h-401.3A11.438,11.438,0,0,0,331.98,189.7v11.889l-10.21,7.742,10.21,7.742v12.759a11.438,11.438,0,0,0,11.438,11.438h401.3A11.438,11.438,0,0,0,756.156,229.836Z" transform="translate(-81.673 -178.647)" fill="#d9d1e8"/>
          <line id="Línea_582" data-name="Línea 582" x1="16.74" transform="translate(0 127.344)" fill="none" stroke="#b53289" stroke-linecap="round" stroke-linejoin="round" stroke-width="2" opacity="0.5"/>
          <line id="Línea_583" data-name="Línea 583" y2="189.809" transform="translate(16.74 32.439)" fill="none" stroke="#b53289" stroke-linecap="round" stroke-linejoin="round" stroke-width="2" opacity="0.5"/>
          <line id="Línea_584" data-name="Línea 584" x1="16.74" transform="translate(16.74 31.505)" fill="none" stroke="#b53289" stroke-linecap="round" stroke-linejoin="round" stroke-width="2" opacity="0.5"/>
          <line id="Línea_585" data-name="Línea 585" x1="16.74" transform="translate(16.74 222.248)" fill="none" stroke="#b53289" stroke-linecap="round" stroke-linejoin="round" stroke-width="2" opacity="0.5"/>
          <circle id="Elipse_5118" data-name="Elipse 5118" cx="9.626" cy="9.626" r="9.626" transform="translate(34.331 21.879)" fill="none" stroke="#b53289" stroke-linecap="round" stroke-linejoin="round" stroke-width="2" opacity="0.5"/>
          <circle id="Elipse_5119" data-name="Elipse 5119" cx="9.626" cy="9.626" r="9.626" transform="translate(34.331 212.623)" fill="none" stroke="#b53289" stroke-linecap="round" stroke-linejoin="round" stroke-width="2" opacity="0.5"/>
          <line id="Línea_586" data-name="Línea 586" x1="16.74" transform="translate(16.74 127.344)" fill="none" stroke="#b53289" stroke-linecap="round" stroke-linejoin="round" stroke-width="2" opacity="0.5"/>
          <circle id="Elipse_5120" data-name="Elipse 5120" cx="9.626" cy="9.626" r="9.626" transform="translate(34.331 117.718)" fill="none" stroke="#b53289" stroke-linecap="round" stroke-linejoin="round" stroke-width="2" opacity="0.5"/>
          <line id="Línea_587" data-name="Línea 587" x1="16.74" transform="translate(0 364.958)" fill="none" stroke="#b53289" stroke-linecap="round" stroke-linejoin="round" stroke-width="2" opacity="0.5"/>
          <line id="Línea_588" data-name="Línea 588" y2="90.16" transform="translate(16.74 319.878)" fill="none" stroke="#b53289" stroke-linecap="round" stroke-linejoin="round" stroke-width="2" opacity="0.5"/>
          <line id="Línea_589" data-name="Línea 589" x1="16.74" transform="translate(16.74 318.944)" fill="none" stroke="#b53289" stroke-linecap="round" stroke-linejoin="round" stroke-width="2" opacity="0.5"/>
          <line id="Línea_590" data-name="Línea 590" x1="16.74" transform="translate(16.74 410.038)" fill="none" stroke="#b53289" stroke-linecap="round" stroke-linejoin="round" stroke-width="2" opacity="0.5"/>
          <circle id="Elipse_5121" data-name="Elipse 5121" cx="9.626" cy="9.626" r="9.626" transform="translate(34.331 309.318)" fill="none" stroke="#b53289" stroke-linecap="round" stroke-linejoin="round" stroke-width="2" opacity="0.5"/>
          <circle id="Elipse_5122" data-name="Elipse 5122" cx="9.626" cy="9.626" r="9.626" transform="translate(34.331 400.412)" fill="none" stroke="#b53289" stroke-linecap="round" stroke-linejoin="round" stroke-width="2" opacity="0.5"/>
          <line id="Línea_591" data-name="Línea 591" x1="16.74" transform="translate(0 593.187)" fill="none" stroke="#b53289" stroke-linecap="round" stroke-linejoin="round" stroke-width="2" opacity="0.5"/>
          <line id="Línea_592" data-name="Línea 592" y2="189.809" transform="translate(16.74 498.283)" fill="none" stroke="#b53289" stroke-linecap="round" stroke-linejoin="round" stroke-width="2" opacity="0.5"/>
          <line id="Línea_593" data-name="Línea 593" x1="16.74" transform="translate(16.74 497.348)" fill="none" stroke="#b53289" stroke-linecap="round" stroke-linejoin="round" stroke-width="2" opacity="0.5"/>
          <line id="Línea_594" data-name="Línea 594" x1="16.74" transform="translate(16.74 688.092)" fill="none" stroke="#b53289" stroke-linecap="round" stroke-linejoin="round" stroke-width="2" opacity="0.5"/>
          <circle id="Elipse_5123" data-name="Elipse 5123" cx="9.626" cy="9.626" r="9.626" transform="translate(34.331 487.722)" fill="none" stroke="#b53289" stroke-linecap="round" stroke-linejoin="round" stroke-width="2" opacity="0.5"/>
          <circle id="Elipse_5124" data-name="Elipse 5124" cx="9.626" cy="9.626" r="9.626" transform="translate(34.331 678.466)" fill="none" stroke="#b53289" stroke-linecap="round" stroke-linejoin="round" stroke-width="2" opacity="0.5"/>
          <line id="Línea_595" data-name="Línea 595" x1="16.74" transform="translate(16.74 593.187)" fill="none" stroke="#b53289" stroke-linecap="round" stroke-linejoin="round" stroke-width="2" opacity="0.5"/>
          <circle id="Elipse_5125" data-name="Elipse 5125" cx="9.626" cy="9.626" r="9.626" transform="translate(34.331 583.562)" fill="none" stroke="#b53289" stroke-linecap="round" stroke-linejoin="round" stroke-width="2" opacity="0.5"/>
          <line id="Línea_596" data-name="Línea 596" x1="16.74" transform="translate(203.255 31.505)" fill="none" stroke="#b53289" stroke-linecap="round" stroke-linejoin="round" stroke-width="2" opacity="0.5"/>
          <line id="Línea_597" data-name="Línea 597" x1="16.74" transform="translate(203.255 222.248)" fill="none" stroke="#b53289" stroke-linecap="round" stroke-linejoin="round" stroke-width="2" opacity="0.5"/>
          <circle id="Elipse_5126" data-name="Elipse 5126" cx="9.626" cy="9.626" r="9.626" transform="translate(220.845 21.879)" fill="none" stroke="#b53289" stroke-linecap="round" stroke-linejoin="round" stroke-width="2" opacity="0.5"/>
          <circle id="Elipse_5127" data-name="Elipse 5127" cx="9.626" cy="9.626" r="9.626" transform="translate(220.845 212.623)" fill="none" stroke="#b53289" stroke-linecap="round" stroke-linejoin="round" stroke-width="2" opacity="0.5"/>
          <line id="Línea_598" data-name="Línea 598" x1="16.74" transform="translate(203.255 127.344)" fill="none" stroke="#b53289" stroke-linecap="round" stroke-linejoin="round" stroke-width="2" opacity="0.5"/>
          <circle id="Elipse_5128" data-name="Elipse 5128" cx="9.626" cy="9.626" r="9.626" transform="translate(220.845 117.718)" fill="none" stroke="#b53289" stroke-linecap="round" stroke-linejoin="round" stroke-width="2" opacity="0.5"/>
          <text id="Aprendizaje_cognitivo" data-name="Aprendizaje
cognitivo" transform="translate(129.382 28.737)" fill="#12263f" font-size="12" font-family="Roboto-Regular, Roboto"><tspan x="-31.488" y="0">Aprendizaje</tspan><tspan x="-24.396" y="14.6">cognitivo</tspan></text>
          <text id="Apropiación_de_conocimientos_y_competencias_relacionadas_con_el_saber." data-name="Apropiación de conocimientos y competencias relacionadas con el saber." transform="translate(260.322 21.618)" fill="#12263f" font-size="12" font-family="Roboto-Regular, Roboto"><tspan x="0" y="13">Apropiación de conocimientos y competencias relacionadas con el saber.</tspan></text>
          <text id="Aprendizaje_procedimental" data-name="Aprendizaje
procedimental" transform="translate(131.159 121.315)" fill="#040505" font-size="12" font-family="Roboto-Regular, Roboto"><tspan x="-31.488" y="0">Aprendizaje</tspan><tspan x="-38.347" y="14.6">procedimental</tspan></text>
          <text id="Desarrollo_de_habilidades_o_destrezas_relacionadas_con_el_saber." data-name="Desarrollo de habilidades o destrezas relacionadas con el saber." transform="translate(269.051 119.618)" fill="#040505" font-size="12" font-family="Roboto-Regular, Roboto"><tspan x="0" y="13">Desarrollo de habilidades o destrezas relacionadas con el saber.</tspan></text>
          <text id="Aprendizaje_actitudinal" data-name="Aprendizaje
actitudinal" transform="translate(133.529 216.735)" fill="#040505" font-size="12" font-family="Roboto-Regular, Roboto"><tspan x="-31.488" y="0">Aprendizaje</tspan><tspan x="-27.958" y="14.6">actitudinal</tspan></text>
          <text id="Valoración_de_otras_capacidades_de_los_participantes_fortalecen_como_el_trabajo_en_equipo_el_liderazgo_la_solución_de_problemas_la_comunicación_asetiva_o_la_toma_de_decisiones." data-name="Valoración de otras capacidades de los participantes fortalecen como el trabajo en equipo, el liderazgo, la solución de problemas, la comunicación asetiva o la toma de decisiones." transform="translate(269.051 199.618)" fill="#040505" font-size="12" font-family="Roboto-Regular, Roboto"><tspan x="0" y="13">Valoración de otras capacidades de los participantes fortalecen como el </tspan><tspan x="0" y="27.6">trabajo en equipo, el liderazgo, la solución de problemas, la </tspan><tspan x="0" y="42.2">comunicación asetiva o la toma de decisiones.</tspan></text>
          <path id="Trazado_231775" data-name="Trazado 231775" d="M360.025,401.544V361.411a11.441,11.441,0,0,0-11.44-11.44H232a11.439,11.439,0,0,0-11.439,11.44V373.3l-10.21,7.742,10.21,7.742v12.759A11.438,11.438,0,0,0,232,412.982H348.585A11.439,11.439,0,0,0,360.025,401.544Z" transform="translate(-156.77 -62.533)" fill="#86d3ed"/>
          <path id="Trazado_231776" data-name="Trazado 231776" d="M756.156,401.544V361.411a11.439,11.439,0,0,0-11.438-11.44h-401.3a11.439,11.439,0,0,0-11.438,11.44V373.3l-10.21,7.742,10.21,7.742v12.759a11.438,11.438,0,0,0,11.438,11.439h401.3A11.438,11.438,0,0,0,756.156,401.544Z" transform="translate(-81.673 -62.353)" fill="#c9ebf7"/>
          <line id="Línea_599" data-name="Línea 599" x1="16.74" transform="translate(203.255 318.944)" fill="none" stroke="#b53289" stroke-linecap="round" stroke-linejoin="round" stroke-width="2" opacity="0.5"/>
          <circle id="Elipse_5129" data-name="Elipse 5129" cx="9.626" cy="9.626" r="9.626" transform="translate(220.845 309.318)" fill="none" stroke="#b53289" stroke-linecap="round" stroke-linejoin="round" stroke-width="2" opacity="0.5"/>
          <text id="Preparación_del_espacio" data-name="Preparación
del espacio" transform="translate(133.529 313.43)" fill="#040505" font-size="12" font-family="Roboto-Regular, Roboto"><tspan x="-32.13" y="0">Preparación</tspan><tspan x="-30.425" y="14.6">del espacio</tspan></text>
          <text id="Evaluación_de_la_planificación_y_preparación_del_espacio_por_parte_del_instructor_teniendo_en_cuenta_todos_los_aspectos_elementos_y_condiciones_del_espacio_creado." data-name="Evaluación de la planificación y preparación del espacio por parte del instructor, teniendo en cuenta todos los aspectos, elementos y condiciones del espacio creado." transform="translate(269.051 294.618)" fill="#040505" font-size="12" font-family="Roboto-Regular, Roboto"><tspan x="0" y="13">Evaluación de la planificación y preparación del espacio por parte del </tspan><tspan x="0" y="27.6">instructor, teniendo en cuenta todos los aspectos, elementos y </tspan><tspan x="0" y="42.2">condiciones del espacio creado.</tspan></text>
          <path id="Trazado_231777" data-name="Trazado 231777" d="M360.025,455.959V415.827a11.439,11.439,0,0,0-11.44-11.438H232a11.438,11.438,0,0,0-11.439,11.438v11.889l-10.21,7.742,10.21,7.742v12.759A11.438,11.438,0,0,0,232,467.4H348.585A11.439,11.439,0,0,0,360.025,455.959Z" transform="translate(-156.77 -25.855)" fill="#86d3ed"/>
          <path id="Trazado_231778" data-name="Trazado 231778" d="M756.156,455.959V415.827a11.438,11.438,0,0,0-11.438-11.438h-401.3a11.438,11.438,0,0,0-11.438,11.438v11.889l-10.21,7.742,10.21,7.742v12.759A11.438,11.438,0,0,0,343.418,467.4h401.3A11.438,11.438,0,0,0,756.156,455.959Z" transform="translate(-81.673 -25.77)" fill="#c9ebf7"/>
          <line id="Línea_600" data-name="Línea 600" x1="16.74" transform="translate(203.255 410.038)" fill="none" stroke="#b53289" stroke-linecap="round" stroke-linejoin="round" stroke-width="2" opacity="0.5"/>
          <circle id="Elipse_5130" data-name="Elipse 5130" cx="9.626" cy="9.626" r="9.626" transform="translate(220.845 400.412)" fill="none" stroke="#b53289" stroke-linecap="round" stroke-linejoin="round" stroke-width="2" opacity="0.5"/>
          <text id="Desarrollo_de_la_simulación" data-name="Desarrollo
de la simulación" transform="translate(131.137 404.524)" fill="#040505" font-size="12" font-family="Roboto-Regular, Roboto"><tspan x="-27.229" y="0">Desarrollo</tspan><tspan x="-43.418" y="14.6">de la simulación</tspan></text>
          <text id="Evaluación_de_la_ejecución_de_la_simulación_la_orientación_que_brindó_el_instructor_teniendo_en_cuenta_todos_los_aspectos_elementos_y_condiciones_del_espacio_creado." data-name="Evaluación de la ejecución de la simulación, la orientación que brindó el instructor, teniendo en cuenta todos los aspectos, elementos y condiciones del espacio creado." transform="translate(269.051 386.618)" fill="#040505" font-size="12" font-family="Roboto-Regular, Roboto"><tspan x="0" y="13">Evaluación de la ejecución de la simulación, la orientación que brindó el </tspan><tspan x="0" y="27.6">instructor, teniendo en cuenta todos los aspectos, elementos y </tspan><tspan x="0" y="42.2">condiciones del espacio creado.</tspan></text>
          <path id="Trazado_231779" data-name="Trazado 231779" d="M360.025,622.34V582.207a11.441,11.441,0,0,0-11.44-11.44H232a11.44,11.44,0,0,0-11.439,11.44V594.1l-10.21,7.742,10.21,7.742V622.34A11.438,11.438,0,0,0,232,633.778H348.585A11.439,11.439,0,0,0,360.025,622.34Z" transform="translate(-156.77 86.286)" fill="#acdee1"/>
          <path id="Trazado_231780" data-name="Trazado 231780" d="M756.156,622.34V582.207a11.44,11.44,0,0,0-11.438-11.44h-401.3a11.44,11.44,0,0,0-11.438,11.44V594.1l-10.21,7.742,10.21,7.742V622.34a11.438,11.438,0,0,0,11.438,11.438h401.3A11.438,11.438,0,0,0,756.156,622.34Z" transform="translate(-81.673 85.851)" fill="#dcf1f3"/>
          <path id="Trazado_231781" data-name="Trazado 231781" d="M360.025,565.646V525.514a11.439,11.439,0,0,0-11.44-11.439H232a11.438,11.438,0,0,0-11.439,11.439V537.4l-10.21,7.742,10.21,7.742v12.759A11.438,11.438,0,0,0,232,577.085H348.585A11.439,11.439,0,0,0,360.025,565.646Z" transform="translate(-156.77 48.075)" fill="#acdee1"/>
          <path id="Trazado_231782" data-name="Trazado 231782" d="M756.156,565.646V525.514a11.438,11.438,0,0,0-11.438-11.439h-401.3a11.438,11.438,0,0,0-11.438,11.439V537.4l-10.21,7.742,10.21,7.742v12.759a11.438,11.438,0,0,0,11.438,11.438h401.3A11.438,11.438,0,0,0,756.156,565.646Z" transform="translate(-81.673 48.543)" fill="#dcf1f3"/>
          <path id="Trazado_231783" data-name="Trazado 231783" d="M360.025,508.394V468.263a11.441,11.441,0,0,0-11.44-11.44H232a11.439,11.439,0,0,0-11.439,11.44v11.889l-10.21,7.742,10.21,7.742v12.758A11.439,11.439,0,0,0,232,519.834H348.585A11.441,11.441,0,0,0,360.025,508.394Z" transform="translate(-156.77 9.486)" fill="#acdee1"/>
          <path id="Trazado_231784" data-name="Trazado 231784" d="M756.156,508.394V468.263a11.439,11.439,0,0,0-11.438-11.44h-401.3a11.439,11.439,0,0,0-11.438,11.44v11.889l-10.21,7.742,10.21,7.742v12.758a11.439,11.439,0,0,0,11.438,11.44h401.3A11.439,11.439,0,0,0,756.156,508.394Z" transform="translate(-81.673 9.794)" fill="#dcf1f3"/>
          <line id="Línea_601" data-name="Línea 601" x1="16.74" transform="translate(203.255 497.815)" fill="none" stroke="#b53289" stroke-linecap="round" stroke-linejoin="round" stroke-width="2" opacity="0.5"/>
          <line id="Línea_602" data-name="Línea 602" x1="16.74" transform="translate(203.255 688.559)" fill="none" stroke="#b53289" stroke-linecap="round" stroke-linejoin="round" stroke-width="2" opacity="0.5"/>
          <circle id="Elipse_5131" data-name="Elipse 5131" cx="9.626" cy="9.626" r="9.626" transform="translate(220.845 488.19)" fill="none" stroke="#b53289" stroke-linecap="round" stroke-linejoin="round" stroke-width="2" opacity="0.5"/>
          <circle id="Elipse_5132" data-name="Elipse 5132" cx="9.626" cy="9.626" r="9.626" transform="translate(220.845 678.934)" fill="none" stroke="#b53289" stroke-linecap="round" stroke-linejoin="round" stroke-width="2" opacity="0.5"/>
          <line id="Línea_603" data-name="Línea 603" x1="16.74" transform="translate(203.255 593.655)" fill="none" stroke="#b53289" stroke-linecap="round" stroke-linejoin="round" stroke-width="2" opacity="0.5"/>
          <circle id="Elipse_5133" data-name="Elipse 5133" cx="9.626" cy="9.626" r="9.626" transform="translate(220.845 584.029)" fill="none" stroke="#b53289" stroke-linecap="round" stroke-linejoin="round" stroke-width="2" opacity="0.5"/>
          <text id="Materiales_insumos_y_espacio_físico" data-name="Materiales, insumos
y espacio físico" transform="translate(128.419 491.787)" fill="#040505" font-size="12" font-family="Roboto-Regular, Roboto"><tspan x="-53.725" y="0">Materiales, insumos</tspan><tspan x="-41.408" y="14.6">y espacio físico</tspan></text>
          <text id="El_espacio_físico_los_materiales_e_insumos_permitieron_el_desarrollo_efectivo_de_la_simulación." data-name="El espacio físico, los materiales e insumos permitieron el desarrollo efectivo de la simulación." transform="translate(269.051 481.618)" fill="#040505" font-size="12" font-family="Roboto-Regular, Roboto"><tspan x="0" y="13">El espacio físico, los materiales e insumos permitieron el desarrollo </tspan><tspan x="0" y="27.6">efectivo de la simulación.</tspan></text>
          <text id="Adecuación_a_los_objetivos_de_aprendizaje" data-name="Adecuación a los
objetivos de
aprendizaje" transform="translate(131.463 584.155)" fill="#040505" font-size="12" font-family="Roboto-Regular, Roboto"><tspan x="-45.724" y="0">Adecuación a los</tspan><tspan x="-32.241" y="14.6">objetivos de</tspan><tspan x="-30.838" y="29.2">aprendizaje</tspan></text>
          <text id="Los_objetivos_de_aprendizaje_son_pertinentes_con_el_plan_de_estudios_la_situación_presentada_y_los_aspectos_desarrollados_en_la_simulación." data-name="Los objetivos de aprendizaje son pertinentes con el plan de estudios, la situación presentada y los aspectos desarrollados en la simulación." transform="translate(269.051 575.618)" fill="#040505" font-size="12" font-family="Roboto-Regular, Roboto"><tspan x="0" y="13">Los objetivos de aprendizaje son pertinentes con el plan de estudios, la </tspan><tspan x="0" y="27.6">situación presentada y los aspectos desarrollados en la simulación.</tspan></text>
          <text id="Adaptación_del_caso_clínico" data-name="Adaptación del
caso clínico" transform="translate(131.485 683.046)" fill="#040505" font-size="12" font-family="Roboto-Regular, Roboto"><tspan x="-39.984" y="0">Adaptación del</tspan><tspan x="-31.813" y="14.6">caso clínico</tspan></text>
          <text id="El_caso_clínico_es_relevante_parte_de_un_contexto_real_y_presenta_correlación_con_paracínicos_y_reacciones_del_tratamiento_médico_realizado." data-name="El caso clínico es relevante, parte de un contexto real y presenta correlación con paracínicos y reacciones del tratamiento médico realizado." transform="translate(269.051 664.618)" fill="#040505" font-size="12" font-family="Roboto-Regular, Roboto"><tspan x="0" y="13">El caso clínico es relevante, parte de un contexto real y presenta </tspan><tspan x="0" y="27.6">correlación con paracínicos y reacciones del tratamiento médico </tspan><tspan x="0" y="42.2">realizado.</tspan></text>
        </g>
      </g>
    </g>
  </g>
</svg>
