<svg xmlns="http://www.w3.org/2000/svg" width="39.999" height="28.914" viewBox="0 0 39.999 28.914">
  <g id="Grupo_136146" data-name="Grupo 136146" transform="translate(-66 -119.148)">
    <path id="Trazado_197808" data-name="Trazado 197808" d="M105.184,124.343a6.193,6.193,0,0,0-4.354-4.351c-3-.82-13.629-.844-14.831-.844s-11.822.023-14.816.809l-.016,0a6.328,6.328,0,0,0-4.356,4.393c-.8,3.042-.811,9-.811,9.251s.009,6.242.813,9.259a6.2,6.2,0,0,0,4.359,4.355c3.028.819,13.628.842,14.827.842s11.822-.023,14.824-.812a6.2,6.2,0,0,0,4.364-4.365c.8-3.041.811-9,.811-9.243S106.02,127.4,105.184,124.343Zm-2.344,9.293a45.347,45.347,0,0,1-.7,8.437,3.025,3.025,0,0,1-2.124,2.126c-2.2.579-10.862.706-14.013.706s-11.779-.132-14-.734a3.026,3.026,0,0,1-2.131-2.124,50.874,50.874,0,0,1,0-16.879,3.113,3.113,0,0,1,2.132-2.159c2.216-.577,10.858-.7,14.005-.7s11.8.132,14,.734a3.03,3.03,0,0,1,2.132,2.129l0,.006A43.032,43.032,0,0,1,102.84,133.636Z" fill="#fff"/>
    <path id="Trazado_197809" data-name="Trazado 197809" d="M206.953,194.707l14.257-8.239-14.257-8.239Zm3.158-11.005,4.788,2.767-4.788,2.767Z" transform="translate(-126.117 -52.863)" fill="#fff"/>
  </g>
</svg>
