<svg xmlns="http://www.w3.org/2000/svg" width="715.38" height="380.715" viewBox="0 0 715.38 380.715">
  <g id="Grupo_239840" data-name="Grupo 239840" transform="translate(-238.788 -222.354)">
    <path id="Trazado_231824" data-name="Trazado 231824" d="M274.777,364.069a4.339,4.339,0,0,1-3.809-2.683L239.994,295.9a6.44,6.44,0,0,1,0-5.371l30.972-65.487a4.343,4.343,0,0,1,3.811-2.686H397.416a4.337,4.337,0,0,1,3.809,2.686L432.2,290.526a6.437,6.437,0,0,1,0,5.373l-30.972,65.484a4.343,4.343,0,0,1-3.811,2.686Z" transform="translate(0.789)" fill="#a698c8" style="isolation: isolate"/>
    <text id="Organizado_y_preparado" data-name="Organizado
y preparado" transform="translate(277.963 267.616)" fill="#fff" font-size="18" font-family="Roboto-Bold, Roboto" font-weight="700"><tspan x="12.472" y="19">Organizado</tspan><tspan x="10.921" y="43">y preparado</tspan></text>
    <path id="Trazado_231825" data-name="Trazado 231825" d="M350.862,399.8a4.341,4.341,0,0,1-3.809-2.686l-30.974-65.489a6.44,6.44,0,0,1,0-5.371l30.974-65.486a4.341,4.341,0,0,1,3.809-2.686H473.5a4.338,4.338,0,0,1,3.809,2.686l30.974,65.486a6.437,6.437,0,0,1,0,5.373l-30.972,65.484A4.343,4.343,0,0,1,473.5,399.8Z" transform="translate(97.296 45.27)" fill="#a698c8" style="isolation: isolate"/>
    <text id="Responsable_de_su_rol" data-name="Responsable de su rol" transform="translate(446.788 349.353)" fill="#fff" font-size="18" font-family="Roboto-Bold, Roboto" font-weight="700"><tspan x="10.623" y="19">Responsable </tspan><tspan x="28.144" y="43">de su rol</tspan></text>
    <path id="Trazado_231826" data-name="Trazado 231826" d="M426.947,364.069a4.338,4.338,0,0,1-3.809-2.683L392.164,295.9a6.44,6.44,0,0,1,0-5.371l30.974-65.487a4.337,4.337,0,0,1,3.809-2.686H549.588a4.332,4.332,0,0,1,3.807,2.686l30.974,65.487a6.436,6.436,0,0,1,0,5.373L553.4,361.384a4.337,4.337,0,0,1-3.809,2.686Z" transform="translate(194.212 0)" fill="#a698c8" style="isolation: isolate"/>
    <text id="Honesto_y_sensible" data-name="Honesto y sensible" transform="translate(619.788 267.354)" fill="#fff" font-size="18" font-family="Roboto-Bold, Roboto" font-weight="700"><tspan x="22.088" y="19">Honesto y </tspan><tspan x="28.961" y="43">sensible</tspan></text>
    <path id="Trazado_231827" data-name="Trazado 231827" d="M502.17,399.8a4.341,4.341,0,0,1-3.809-2.686l-30.974-65.489a6.431,6.431,0,0,1,0-5.371l30.972-65.486a4.346,4.346,0,0,1,3.811-2.686H624.809a4.341,4.341,0,0,1,3.809,2.686l30.974,65.486a6.428,6.428,0,0,1,0,5.373l-30.97,65.484a4.345,4.345,0,0,1-3.811,2.688Z" transform="translate(289.989 45.27)" fill="#a698c8" style="isolation: isolate"/>
    <text id="Consciente_de_las_dificultades_de_las_poblaciones" data-name="Consciente de las dificultades de las poblaciones" transform="translate(779.788 336.353)" fill="#fff" font-size="18" font-family="Roboto-Bold, Roboto" font-weight="700"><tspan x="2.752" y="19">Consciente de las </tspan><tspan x="0.81" y="43">dificultades de las </tspan><tspan x="25.41" y="67">poblaciones</tspan></text>
    <path id="Trazado_231828" data-name="Trazado 231828" d="M274.158,434.616a4.338,4.338,0,0,1-3.809-2.683l-30.974-65.489a6.431,6.431,0,0,1,0-5.371l30.972-65.487a4.346,4.346,0,0,1,3.811-2.686H396.8a4.341,4.341,0,0,1,3.809,2.686l30.974,65.487a6.428,6.428,0,0,1,0,5.373l-30.969,65.484a4.343,4.343,0,0,1-3.811,2.686Z" transform="translate(0 89.452)" fill="#86d3ed" style="isolation: isolate"/>
    <text id="Colaborativo_y_solidario" data-name="Colaborativo y solidario" transform="translate(273.788 429.353)" fill="#fff" font-size="18" font-family="Roboto-Bold, Roboto" font-weight="700"><tspan x="3.66" y="19">Colaborativo y </tspan><tspan x="26.595" y="43">solidario</tspan></text>
    <path id="Trazado_231829" data-name="Trazado 231829" d="M350.862,469.041a4.338,4.338,0,0,1-3.809-2.683l-30.974-65.489a6.445,6.445,0,0,1,0-5.373l30.974-65.484a4.337,4.337,0,0,1,3.809-2.686H473.5a4.335,4.335,0,0,1,3.809,2.686L508.284,395.5a6.431,6.431,0,0,1,0,5.371l-30.972,65.487a4.34,4.34,0,0,1-3.811,2.686Z" transform="translate(97.296 134.027)" fill="#86d3ed" style="isolation: isolate"/>
    <text id="Respetuoso" transform="translate(447.788 519.354)" fill="#fff" font-size="18" font-family="Roboto-Bold, Roboto" font-weight="700"><tspan x="13.689" y="19">Respetuoso</tspan></text>
    <path id="Trazado_231830" data-name="Trazado 231830" d="M426.947,434.616a4.338,4.338,0,0,1-3.809-2.683l-30.974-65.489a6.44,6.44,0,0,1,0-5.371l30.974-65.487a4.341,4.341,0,0,1,3.809-2.686H549.588a4.335,4.335,0,0,1,3.807,2.686l30.974,65.487a6.436,6.436,0,0,1,0,5.373L553.4,431.931a4.337,4.337,0,0,1-3.809,2.686Z" transform="translate(194.212 89.452)" fill="#86d3ed" style="isolation: isolate"/>
    <text id="Calmado_y_fomenta_confianza" data-name="Calmado y fomenta confianza" transform="translate(620.789 417.354)" fill="#fff" font-size="18" font-family="Roboto-Bold, Roboto" font-weight="700"><tspan x="19.103" y="19">Calmado y </tspan><tspan x="27.861" y="43">fomenta </tspan><tspan x="22.17" y="67">confianza</tspan></text>
    <path id="Trazado_231831" data-name="Trazado 231831" d="M503.543,469.041a4.338,4.338,0,0,1-3.809-2.683L468.76,400.869a6.445,6.445,0,0,1,0-5.373l30.972-65.484a4.343,4.343,0,0,1,3.811-2.686H626.182a4.337,4.337,0,0,1,3.809,2.686L660.964,395.5a6.431,6.431,0,0,1,0,5.371l-30.972,65.487a4.342,4.342,0,0,1-3.811,2.686Z" transform="translate(292.616 134.027)" fill="#86d3ed" style="isolation: isolate"/>
    <text id="Apto_para_compartir_sus_experiencias" data-name="Apto para compartir sus experiencias" transform="translate(791.789 495.354)" fill="#fff" font-size="18" font-family="Roboto-Bold, Roboto" font-weight="700"><tspan x="26.165" y="19">Apto para </tspan><tspan x="9.184" y="43">compartir sus </tspan><tspan x="13.913" y="67">experiencias</tspan></text>
  </g>
</svg>
